<svg width="645" height="627" viewBox="0 0 645 627" fill="none" xmlns="http://www.w3.org/2000/svg">
<path d="M367.795 335L313.795 379.167V290.833L367.795 335Z" fill="#BA1E71"/>
<path fill-rule="evenodd" clip-rule="evenodd" d="M0 379L53.7955 335L0 291H313.795V379H0Z" fill="#BA1E71"/>
<path d="M127.807 349V346.443L137.409 335.932C138.536 334.701 139.464 333.631 140.193 332.722C140.922 331.803 141.462 330.941 141.812 330.136C142.172 329.322 142.352 328.47 142.352 327.58C142.352 326.557 142.106 325.671 141.614 324.923C141.131 324.175 140.468 323.598 139.625 323.19C138.782 322.783 137.835 322.58 136.784 322.58C135.667 322.58 134.691 322.812 133.858 323.276C133.034 323.73 132.395 324.369 131.94 325.193C131.495 326.017 131.273 326.983 131.273 328.091H127.92C127.92 326.386 128.313 324.89 129.099 323.602C129.885 322.314 130.955 321.311 132.31 320.591C133.673 319.871 135.203 319.511 136.898 319.511C138.602 319.511 140.113 319.871 141.429 320.591C142.745 321.311 143.777 322.281 144.526 323.503C145.274 324.724 145.648 326.083 145.648 327.58C145.648 328.65 145.454 329.696 145.065 330.719C144.687 331.732 144.024 332.864 143.077 334.114C142.139 335.354 140.837 336.869 139.17 338.659L132.636 345.648V345.875H146.159V349H127.807ZM161.514 349.398C159.374 349.398 157.551 348.815 156.045 347.651C154.54 346.476 153.389 344.777 152.594 342.551C151.798 340.316 151.401 337.617 151.401 334.455C151.401 331.311 151.798 328.626 152.594 326.401C153.399 324.166 154.554 322.461 156.06 321.287C157.575 320.103 159.393 319.511 161.514 319.511C163.635 319.511 165.449 320.103 166.955 321.287C168.47 322.461 169.625 324.166 170.42 326.401C171.225 328.626 171.628 331.311 171.628 334.455C171.628 337.617 171.23 340.316 170.435 342.551C169.639 344.777 168.489 346.476 166.983 347.651C165.477 348.815 163.654 349.398 161.514 349.398ZM161.514 346.273C163.635 346.273 165.283 345.25 166.457 343.205C167.632 341.159 168.219 338.242 168.219 334.455C168.219 331.936 167.949 329.791 167.409 328.02C166.879 326.249 166.112 324.9 165.108 323.972C164.114 323.044 162.916 322.58 161.514 322.58C159.412 322.58 157.769 323.616 156.585 325.69C155.401 327.755 154.81 330.676 154.81 334.455C154.81 336.973 155.075 339.114 155.605 340.875C156.135 342.636 156.898 343.976 157.892 344.895C158.896 345.813 160.103 346.273 161.514 346.273ZM177.026 349V346.443L186.628 335.932C187.755 334.701 188.683 333.631 189.412 332.722C190.141 331.803 190.681 330.941 191.031 330.136C191.391 329.322 191.571 328.47 191.571 327.58C191.571 326.557 191.325 325.671 190.832 324.923C190.349 324.175 189.687 323.598 188.844 323.19C188.001 322.783 187.054 322.58 186.003 322.58C184.885 322.58 183.91 322.812 183.077 323.276C182.253 323.73 181.614 324.369 181.159 325.193C180.714 326.017 180.491 326.983 180.491 328.091H177.139C177.139 326.386 177.532 324.89 178.318 323.602C179.104 322.314 180.174 321.311 181.528 320.591C182.892 319.871 184.421 319.511 186.116 319.511C187.821 319.511 189.331 319.871 190.648 320.591C191.964 321.311 192.996 322.281 193.744 323.503C194.492 324.724 194.866 326.083 194.866 327.58C194.866 328.65 194.672 329.696 194.284 330.719C193.905 331.732 193.242 332.864 192.295 334.114C191.358 335.354 190.056 336.869 188.389 338.659L181.855 345.648V345.875H195.378V349H177.026ZM210.335 349.398C208.669 349.398 207.168 349.066 205.832 348.403C204.497 347.741 203.427 346.831 202.622 345.676C201.817 344.521 201.377 343.205 201.301 341.727H204.71C204.843 343.044 205.439 344.133 206.5 344.994C207.57 345.847 208.848 346.273 210.335 346.273C211.528 346.273 212.589 345.993 213.517 345.435C214.455 344.876 215.188 344.109 215.719 343.134C216.258 342.149 216.528 341.036 216.528 339.795C216.528 338.527 216.249 337.395 215.69 336.401C215.141 335.397 214.383 334.606 213.418 334.028C212.452 333.451 211.348 333.157 210.108 333.148C209.218 333.138 208.304 333.276 207.366 333.56C206.429 333.834 205.657 334.189 205.051 334.625L201.756 334.227L203.517 319.909H218.631V323.034H206.472L205.449 331.614H205.619C206.216 331.14 206.964 330.747 207.864 330.435C208.763 330.122 209.701 329.966 210.676 329.966C212.456 329.966 214.043 330.392 215.435 331.244C216.836 332.087 217.935 333.242 218.73 334.71C219.535 336.178 219.937 337.854 219.937 339.739C219.937 341.595 219.521 343.252 218.687 344.71C217.864 346.159 216.727 347.305 215.278 348.148C213.83 348.981 212.182 349.398 210.335 349.398ZM247.91 339.909H251.773L255.012 344.17L255.864 345.307L260.694 351.727H256.83L253.648 347.466L252.853 346.386L247.91 339.909ZM261.887 334.455C261.887 337.523 261.333 340.174 260.225 342.409C259.117 344.644 257.597 346.367 255.665 347.58C253.734 348.792 251.527 349.398 249.046 349.398C246.565 349.398 244.359 348.792 242.427 347.58C240.495 346.367 238.975 344.644 237.867 342.409C236.759 340.174 236.205 337.523 236.205 334.455C236.205 331.386 236.759 328.735 237.867 326.5C238.975 324.265 240.495 322.542 242.427 321.33C244.359 320.117 246.565 319.511 249.046 319.511C251.527 319.511 253.734 320.117 255.665 321.33C257.597 322.542 259.117 324.265 260.225 326.5C261.333 328.735 261.887 331.386 261.887 334.455ZM258.478 334.455C258.478 331.936 258.057 329.81 257.214 328.077C256.38 326.344 255.249 325.032 253.819 324.142C252.398 323.252 250.807 322.807 249.046 322.807C247.285 322.807 245.689 323.252 244.259 324.142C242.839 325.032 241.707 326.344 240.864 328.077C240.031 329.81 239.614 331.936 239.614 334.455C239.614 336.973 240.031 339.099 240.864 340.832C241.707 342.565 242.839 343.877 244.259 344.767C245.689 345.657 247.285 346.102 249.046 346.102C250.807 346.102 252.398 345.657 253.819 344.767C255.249 343.877 256.38 342.565 257.214 340.832C258.057 339.099 258.478 336.973 258.478 334.455ZM266.617 343.034V340.136L279.401 319.909H281.504V324.398H280.083L270.424 339.682V339.909H287.64V343.034H266.617ZM280.31 349V342.153V340.804V319.909H283.663V349H280.31Z" fill="black"/>
<circle cx="93.2954" cy="335.5" r="8.5" fill="#D9D9D9"/>
<path d="M93.0085 26.7273C92.0919 26.7273 91.2547 26.5038 90.4972 26.0568C89.7396 25.6023 89.1335 24.9962 88.679 24.2386C88.232 23.4811 88.0085 22.6439 88.0085 21.7273C88.0085 20.803 88.232 19.9659 88.679 19.2159C89.1335 18.4583 89.7396 17.8561 90.4972 17.4091C91.2547 16.9545 92.0919 16.7273 93.0085 16.7273C93.9328 16.7273 94.7699 16.9545 95.5199 17.4091C96.2775 17.8561 96.8797 18.4583 97.3267 19.2159C97.7813 19.9659 98.0085 20.803 98.0085 21.7273C98.0085 22.6439 97.7813 23.4811 97.3267 24.2386C96.8797 24.9962 96.2775 25.6023 95.5199 26.0568C94.7699 26.5038 93.9328 26.7273 93.0085 26.7273ZM119.557 31V7.72727H123.068V27.9773H133.614V31H119.557ZM142.426 31.3864C141.32 31.3864 140.32 31.1818 139.426 30.7727C138.532 30.3561 137.824 29.7538 137.301 28.9659C136.786 28.178 136.528 27.2121 136.528 26.0682C136.528 25.0833 136.718 24.2727 137.097 23.6364C137.475 23 137.987 22.4962 138.631 22.125C139.275 21.7538 139.994 21.4735 140.79 21.2841C141.585 21.0947 142.396 20.9508 143.222 20.8523C144.267 20.7311 145.116 20.6326 145.767 20.5568C146.419 20.4735 146.892 20.3409 147.188 20.1591C147.483 19.9773 147.631 19.6818 147.631 19.2727V19.1932C147.631 18.2008 147.35 17.4318 146.79 16.8864C146.237 16.3409 145.411 16.0682 144.312 16.0682C143.169 16.0682 142.267 16.322 141.608 16.8295C140.956 17.3295 140.506 17.8864 140.256 18.5L137.062 17.7727C137.441 16.7121 137.994 15.8561 138.722 15.2045C139.456 14.5455 140.301 14.0682 141.256 13.7727C142.21 13.4697 143.214 13.3182 144.267 13.3182C144.964 13.3182 145.703 13.4015 146.483 13.5682C147.271 13.7273 148.006 14.0227 148.688 14.4545C149.377 14.8864 149.941 15.5038 150.381 16.3068C150.82 17.1023 151.04 18.1364 151.04 19.4091V31H147.722V28.6136H147.585C147.366 29.053 147.036 29.4848 146.597 29.9091C146.157 30.3333 145.593 30.6856 144.903 30.9659C144.214 31.2462 143.388 31.3864 142.426 31.3864ZM143.165 28.6591C144.104 28.6591 144.907 28.4735 145.574 28.1023C146.248 27.7311 146.759 27.2462 147.108 26.6477C147.464 26.0417 147.642 25.3939 147.642 24.7045V22.4545C147.521 22.5758 147.286 22.6894 146.938 22.7955C146.597 22.8939 146.206 22.9811 145.767 23.0568C145.328 23.125 144.9 23.1894 144.483 23.25C144.066 23.303 143.718 23.3485 143.438 23.3864C142.778 23.4697 142.176 23.6098 141.631 23.8068C141.093 24.0038 140.661 24.2879 140.335 24.6591C140.017 25.0227 139.858 25.5076 139.858 26.1136C139.858 26.9545 140.169 27.5909 140.79 28.0227C141.411 28.447 142.203 28.6591 143.165 28.6591ZM157.088 37.5455C156.58 37.5455 156.118 37.5038 155.702 37.4205C155.285 37.3447 154.974 37.2614 154.77 37.1705L155.588 34.3864C156.209 34.553 156.762 34.625 157.247 34.6023C157.732 34.5795 158.16 34.3977 158.531 34.0568C158.91 33.7159 159.243 33.1591 159.531 32.3864L159.952 31.2273L153.565 13.5455H157.202L161.622 27.0909H161.804L166.224 13.5455H169.872L162.679 33.3295C162.346 34.2386 161.921 35.0076 161.406 35.6364C160.891 36.2727 160.277 36.75 159.565 37.0682C158.853 37.3864 158.027 37.5455 157.088 37.5455ZM179.994 31.3523C178.275 31.3523 176.794 30.9848 175.551 30.25C174.316 29.5076 173.362 28.4659 172.688 27.125C172.021 25.7765 171.688 24.197 171.688 22.3864C171.688 20.5985 172.021 19.0227 172.688 17.6591C173.362 16.2955 174.301 15.2311 175.506 14.4659C176.718 13.7008 178.134 13.3182 179.756 13.3182C180.741 13.3182 181.695 13.4811 182.619 13.8068C183.544 14.1326 184.373 14.6439 185.108 15.3409C185.843 16.0379 186.422 16.9432 186.847 18.0568C187.271 19.1629 187.483 20.5076 187.483 22.0909V23.2955H173.608V20.75H184.153C184.153 19.8561 183.972 19.0644 183.608 18.375C183.244 17.678 182.733 17.1288 182.074 16.7273C181.422 16.3258 180.657 16.125 179.778 16.125C178.824 16.125 177.991 16.3598 177.278 16.8295C176.574 17.2917 176.028 17.8977 175.642 18.6477C175.263 19.3902 175.074 20.197 175.074 21.0682V23.0568C175.074 24.2235 175.278 25.2159 175.688 26.0341C176.104 26.8523 176.684 27.4773 177.426 27.9091C178.169 28.3333 179.036 28.5455 180.028 28.5455C180.672 28.5455 181.259 28.4545 181.79 28.2727C182.32 28.0833 182.778 27.803 183.165 27.4318C183.551 27.0606 183.847 26.6023 184.051 26.0568L187.267 26.6364C187.009 27.5833 186.547 28.4129 185.881 29.125C185.222 29.8295 184.392 30.3788 183.392 30.7727C182.4 31.1591 181.267 31.3523 179.994 31.3523ZM191.253 31V13.5455H194.537V16.3182H194.719C195.037 15.3788 195.598 14.6402 196.401 14.1023C197.211 13.5568 198.128 13.2841 199.151 13.2841C199.363 13.2841 199.613 13.2917 199.901 13.3068C200.196 13.322 200.427 13.3409 200.594 13.3636V16.6136C200.457 16.5758 200.215 16.5341 199.866 16.4886C199.518 16.4356 199.17 16.4091 198.821 16.4091C198.018 16.4091 197.302 16.5795 196.673 16.9205C196.052 17.2538 195.56 17.7197 195.196 18.3182C194.832 18.9091 194.651 19.5833 194.651 20.3409V31H191.253ZM220.787 7.72727V31H217.264V11.25H217.128L211.56 14.8864V11.5227L217.366 7.72727H220.787ZM235.869 7.72727H240.131L247.54 25.8182H247.812L255.222 7.72727H259.483V31H256.142V14.1591H255.926L249.062 30.9659H246.29L239.426 14.1477H239.21V31H235.869V7.72727ZM269.395 31.3864C268.289 31.3864 267.289 31.1818 266.395 30.7727C265.501 30.3561 264.793 29.7538 264.27 28.9659C263.755 28.178 263.497 27.2121 263.497 26.0682C263.497 25.0833 263.687 24.2727 264.065 23.6364C264.444 23 264.955 22.4962 265.599 22.125C266.243 21.7538 266.963 21.4735 267.759 21.2841C268.554 21.0947 269.365 20.9508 270.19 20.8523C271.236 20.7311 272.084 20.6326 272.736 20.5568C273.387 20.4735 273.861 20.3409 274.156 20.1591C274.452 19.9773 274.599 19.6818 274.599 19.2727V19.1932C274.599 18.2008 274.319 17.4318 273.759 16.8864C273.205 16.3409 272.38 16.0682 271.281 16.0682C270.137 16.0682 269.236 16.322 268.577 16.8295C267.925 17.3295 267.474 17.8864 267.224 18.5L264.031 17.7727C264.41 16.7121 264.963 15.8561 265.69 15.2045C266.425 14.5455 267.27 14.0682 268.224 13.7727C269.179 13.4697 270.183 13.3182 271.236 13.3182C271.933 13.3182 272.671 13.4015 273.452 13.5682C274.24 13.7273 274.974 14.0227 275.656 14.4545C276.346 14.8864 276.91 15.5038 277.349 16.3068C277.789 17.1023 278.009 18.1364 278.009 19.4091V31H274.69V28.6136H274.554C274.334 29.053 274.005 29.4848 273.565 29.9091C273.126 30.3333 272.562 30.6856 271.872 30.9659C271.183 31.2462 270.357 31.3864 269.395 31.3864ZM270.134 28.6591C271.073 28.6591 271.876 28.4735 272.543 28.1023C273.217 27.7311 273.728 27.2462 274.077 26.6477C274.433 26.0417 274.611 25.3939 274.611 24.7045V22.4545C274.49 22.5758 274.255 22.6894 273.906 22.7955C273.565 22.8939 273.175 22.9811 272.736 23.0568C272.296 23.125 271.868 23.1894 271.452 23.25C271.035 23.303 270.687 23.3485 270.406 23.3864C269.747 23.4697 269.145 23.6098 268.599 23.8068C268.062 24.0038 267.63 24.2879 267.304 24.6591C266.986 25.0227 266.827 25.5076 266.827 26.1136C266.827 26.9545 267.137 27.5909 267.759 28.0227C268.38 28.447 269.171 28.6591 270.134 28.6591ZM282.534 31V13.5455H285.932V31H282.534ZM284.25 10.8523C283.659 10.8523 283.152 10.6553 282.727 10.2614C282.311 9.85985 282.102 9.38257 282.102 8.82954C282.102 8.26894 282.311 7.79167 282.727 7.39773C283.152 6.99621 283.659 6.79545 284.25 6.79545C284.841 6.79545 285.345 6.99621 285.761 7.39773C286.186 7.79167 286.398 8.26894 286.398 8.82954C286.398 9.38257 286.186 9.85985 285.761 10.2614C285.345 10.6553 284.841 10.8523 284.25 10.8523ZM293.901 20.6364V31H290.503V13.5455H293.764V16.3864H293.98C294.382 15.4621 295.01 14.7197 295.866 14.1591C296.73 13.5985 297.817 13.3182 299.128 13.3182C300.317 13.3182 301.359 13.5682 302.253 14.0682C303.147 14.5606 303.84 15.2955 304.332 16.2727C304.825 17.25 305.071 18.4583 305.071 19.8977V31H301.673V20.3068C301.673 19.0417 301.344 18.053 300.685 17.3409C300.026 16.6212 299.12 16.2614 297.969 16.2614C297.181 16.2614 296.48 16.4318 295.866 16.7727C295.26 17.1136 294.779 17.6136 294.423 18.2727C294.075 18.9242 293.901 19.7121 293.901 20.6364ZM313.026 20.6364V31H309.628V13.5455H312.889V16.3864H313.105C313.507 15.4621 314.135 14.7197 314.991 14.1591C315.855 13.5985 316.942 13.3182 318.253 13.3182C319.442 13.3182 320.484 13.5682 321.378 14.0682C322.272 14.5606 322.965 15.2955 323.457 16.2727C323.95 17.25 324.196 18.4583 324.196 19.8977V31H320.798V20.3068C320.798 19.0417 320.469 18.053 319.81 17.3409C319.151 16.6212 318.245 16.2614 317.094 16.2614C316.306 16.2614 315.605 16.4318 314.991 16.7727C314.385 17.1136 313.904 17.6136 313.548 18.2727C313.2 18.9242 313.026 19.7121 313.026 20.6364ZM336.276 31.3523C334.556 31.3523 333.075 30.9848 331.832 30.25C330.598 29.5076 329.643 28.4659 328.969 27.125C328.302 25.7765 327.969 24.197 327.969 22.3864C327.969 20.5985 328.302 19.0227 328.969 17.6591C329.643 16.2955 330.582 15.2311 331.787 14.4659C332.999 13.7008 334.416 13.3182 336.037 13.3182C337.022 13.3182 337.976 13.4811 338.901 13.8068C339.825 14.1326 340.654 14.6439 341.389 15.3409C342.124 16.0379 342.704 16.9432 343.128 18.0568C343.552 19.1629 343.764 20.5076 343.764 22.0909V23.2955H329.889V20.75H340.435C340.435 19.8561 340.253 19.0644 339.889 18.375C339.526 17.678 339.014 17.1288 338.355 16.7273C337.704 16.3258 336.938 16.125 336.06 16.125C335.105 16.125 334.272 16.3598 333.56 16.8295C332.855 17.2917 332.31 17.8977 331.923 18.6477C331.545 19.3902 331.355 20.197 331.355 21.0682V23.0568C331.355 24.2235 331.56 25.2159 331.969 26.0341C332.385 26.8523 332.965 27.4773 333.707 27.9091C334.45 28.3333 335.317 28.5455 336.31 28.5455C336.954 28.5455 337.541 28.4545 338.071 28.2727C338.601 28.0833 339.06 27.803 339.446 27.4318C339.832 27.0606 340.128 26.6023 340.332 26.0568L343.548 26.6364C343.291 27.5833 342.829 28.4129 342.162 29.125C341.503 29.8295 340.673 30.3788 339.673 30.7727C338.681 31.1591 337.548 31.3523 336.276 31.3523ZM355.682 13.5455V16.2727H346.148V13.5455H355.682ZM348.705 9.36364H352.102V25.875C352.102 26.5341 352.201 27.0303 352.398 27.3636C352.595 27.6894 352.848 27.9129 353.159 28.0341C353.477 28.1477 353.822 28.2045 354.193 28.2045C354.466 28.2045 354.705 28.1856 354.909 28.1477C355.114 28.1098 355.273 28.0795 355.386 28.0568L356 30.8636C355.803 30.9394 355.523 31.0152 355.159 31.0909C354.795 31.1742 354.341 31.2197 353.795 31.2273C352.902 31.2424 352.068 31.0833 351.295 30.75C350.523 30.4167 349.898 29.9015 349.42 29.2045C348.943 28.5076 348.705 27.6326 348.705 26.5795V9.36364ZM371.693 7.72727V31H368.182V7.72727H371.693ZM376.534 31V13.5455H379.795V16.3864H380.011C380.375 15.4242 380.97 14.6742 381.795 14.1364C382.621 13.5909 383.61 13.3182 384.761 13.3182C385.928 13.3182 386.905 13.5909 387.693 14.1364C388.489 14.6818 389.076 15.4318 389.455 16.3864H389.636C390.053 15.4545 390.716 14.7121 391.625 14.1591C392.534 13.5985 393.617 13.3182 394.875 13.3182C396.458 13.3182 397.75 13.8144 398.75 14.8068C399.758 15.7992 400.261 17.2955 400.261 19.2955V31H396.864V19.6136C396.864 18.4318 396.542 17.5758 395.898 17.0455C395.254 16.5152 394.485 16.25 393.591 16.25C392.485 16.25 391.625 16.5909 391.011 17.2727C390.398 17.947 390.091 18.8144 390.091 19.875V31H386.705V19.3977C386.705 18.4508 386.409 17.6894 385.818 17.1136C385.227 16.5379 384.458 16.25 383.511 16.25C382.867 16.25 382.273 16.4205 381.727 16.7614C381.189 17.0947 380.754 17.5606 380.42 18.1591C380.095 18.7576 379.932 19.4508 379.932 20.2386V31H376.534ZM404.815 37.5455V13.5455H408.134V16.375H408.418C408.615 16.0114 408.899 15.5909 409.27 15.1136C409.641 14.6364 410.156 14.2197 410.815 13.8636C411.474 13.5 412.346 13.3182 413.429 13.3182C414.838 13.3182 416.096 13.6742 417.202 14.3864C418.308 15.0985 419.175 16.125 419.804 17.4659C420.44 18.8068 420.759 20.4205 420.759 22.3068C420.759 24.1932 420.444 25.8106 419.815 27.1591C419.187 28.5 418.323 29.5341 417.224 30.2614C416.126 30.9811 414.872 31.3409 413.463 31.3409C412.402 31.3409 411.535 31.1629 410.861 30.8068C410.194 30.4508 409.671 30.0341 409.293 29.5568C408.914 29.0795 408.622 28.6553 408.418 28.2841H408.213V37.5455H404.815ZM408.145 22.2727C408.145 23.5 408.323 24.5758 408.679 25.5C409.035 26.4242 409.55 27.1477 410.224 27.6705C410.899 28.1856 411.724 28.4432 412.702 28.4432C413.717 28.4432 414.565 28.1742 415.247 27.6364C415.929 27.0909 416.444 26.3523 416.793 25.4205C417.149 24.4886 417.327 23.4394 417.327 22.2727C417.327 21.1212 417.152 20.0871 416.804 19.1705C416.463 18.2538 415.948 17.5303 415.259 17C414.577 16.4697 413.724 16.2045 412.702 16.2045C411.717 16.2045 410.884 16.4583 410.202 16.9659C409.527 17.4735 409.016 18.1818 408.668 19.0909C408.319 20 408.145 21.0606 408.145 22.2727ZM427.963 7.72727V31H424.565V7.72727H427.963ZM440.057 31.3523C438.337 31.3523 436.856 30.9848 435.614 30.25C434.379 29.5076 433.424 28.4659 432.75 27.125C432.083 25.7765 431.75 24.197 431.75 22.3864C431.75 20.5985 432.083 19.0227 432.75 17.6591C433.424 16.2955 434.364 15.2311 435.568 14.4659C436.78 13.7008 438.197 13.3182 439.818 13.3182C440.803 13.3182 441.758 13.4811 442.682 13.8068C443.606 14.1326 444.436 14.6439 445.17 15.3409C445.905 16.0379 446.485 16.9432 446.909 18.0568C447.333 19.1629 447.545 20.5076 447.545 22.0909V23.2955H433.67V20.75H444.216C444.216 19.8561 444.034 19.0644 443.67 18.375C443.307 17.678 442.795 17.1288 442.136 16.7273C441.485 16.3258 440.72 16.125 439.841 16.125C438.886 16.125 438.053 16.3598 437.341 16.8295C436.636 17.2917 436.091 17.8977 435.705 18.6477C435.326 19.3902 435.136 20.197 435.136 21.0682V23.0568C435.136 24.2235 435.341 25.2159 435.75 26.0341C436.167 26.8523 436.746 27.4773 437.489 27.9091C438.231 28.3333 439.098 28.5455 440.091 28.5455C440.735 28.5455 441.322 28.4545 441.852 28.2727C442.383 28.0833 442.841 27.803 443.227 27.4318C443.614 27.0606 443.909 26.6023 444.114 26.0568L447.33 26.6364C447.072 27.5833 446.61 28.4129 445.943 29.125C445.284 29.8295 444.455 30.3788 443.455 30.7727C442.462 31.1591 441.33 31.3523 440.057 31.3523ZM451.315 31V13.5455H454.577V16.3864H454.793C455.156 15.4242 455.751 14.6742 456.577 14.1364C457.402 13.5909 458.391 13.3182 459.543 13.3182C460.709 13.3182 461.687 13.5909 462.474 14.1364C463.27 14.6818 463.857 15.4318 464.236 16.3864H464.418C464.834 15.4545 465.497 14.7121 466.406 14.1591C467.315 13.5985 468.399 13.3182 469.656 13.3182C471.24 13.3182 472.531 13.8144 473.531 14.8068C474.539 15.7992 475.043 17.2955 475.043 19.2955V31H471.645V19.6136C471.645 18.4318 471.323 17.5758 470.679 17.0455C470.035 16.5152 469.266 16.25 468.372 16.25C467.266 16.25 466.406 16.5909 465.793 17.2727C465.179 17.947 464.872 18.8144 464.872 19.875V31H461.486V19.3977C461.486 18.4508 461.19 17.6894 460.599 17.1136C460.009 16.5379 459.24 16.25 458.293 16.25C457.649 16.25 457.054 16.4205 456.509 16.7614C455.971 17.0947 455.535 17.5606 455.202 18.1591C454.876 18.7576 454.713 19.4508 454.713 20.2386V31H451.315ZM487.119 31.3523C485.4 31.3523 483.919 30.9848 482.676 30.25C481.441 29.5076 480.487 28.4659 479.812 27.125C479.146 25.7765 478.812 24.197 478.812 22.3864C478.812 20.5985 479.146 19.0227 479.812 17.6591C480.487 16.2955 481.426 15.2311 482.631 14.4659C483.843 13.7008 485.259 13.3182 486.881 13.3182C487.866 13.3182 488.82 13.4811 489.744 13.8068C490.669 14.1326 491.498 14.6439 492.233 15.3409C492.968 16.0379 493.547 16.9432 493.972 18.0568C494.396 19.1629 494.608 20.5076 494.608 22.0909V23.2955H480.733V20.75H491.278C491.278 19.8561 491.097 19.0644 490.733 18.375C490.369 17.678 489.858 17.1288 489.199 16.7273C488.547 16.3258 487.782 16.125 486.903 16.125C485.949 16.125 485.116 16.3598 484.403 16.8295C483.699 17.2917 483.153 17.8977 482.767 18.6477C482.388 19.3902 482.199 20.197 482.199 21.0682V23.0568C482.199 24.2235 482.403 25.2159 482.812 26.0341C483.229 26.8523 483.809 27.4773 484.551 27.9091C485.294 28.3333 486.161 28.5455 487.153 28.5455C487.797 28.5455 488.384 28.4545 488.915 28.2727C489.445 28.0833 489.903 27.803 490.29 27.4318C490.676 27.0606 490.972 26.6023 491.176 26.0568L494.392 26.6364C494.134 27.5833 493.672 28.4129 493.006 29.125C492.347 29.8295 491.517 30.3788 490.517 30.7727C489.525 31.1591 488.392 31.3523 487.119 31.3523ZM501.776 20.6364V31H498.378V13.5455H501.639V16.3864H501.855C502.257 15.4621 502.885 14.7197 503.741 14.1591C504.605 13.5985 505.692 13.3182 507.003 13.3182C508.192 13.3182 509.234 13.5682 510.128 14.0682C511.022 14.5606 511.715 15.2955 512.207 16.2727C512.7 17.25 512.946 18.4583 512.946 19.8977V31H509.548V20.3068C509.548 19.0417 509.219 18.053 508.56 17.3409C507.901 16.6212 506.995 16.2614 505.844 16.2614C505.056 16.2614 504.355 16.4318 503.741 16.7727C503.135 17.1136 502.654 17.6136 502.298 18.2727C501.95 18.9242 501.776 19.7121 501.776 20.6364ZM525.651 13.5455V16.2727H516.116V13.5455H525.651ZM518.673 9.36364H522.071V25.875C522.071 26.5341 522.17 27.0303 522.366 27.3636C522.563 27.6894 522.817 27.9129 523.128 28.0341C523.446 28.1477 523.791 28.2045 524.162 28.2045C524.435 28.2045 524.673 28.1856 524.878 28.1477C525.082 28.1098 525.241 28.0795 525.355 28.0568L525.969 30.8636C525.772 30.9394 525.491 31.0152 525.128 31.0909C524.764 31.1742 524.31 31.2197 523.764 31.2273C522.87 31.2424 522.037 31.0833 521.264 30.75C520.491 30.4167 519.866 29.9015 519.389 29.2045C518.912 28.5076 518.673 27.6326 518.673 26.5795V9.36364ZM534.489 31.3864C533.383 31.3864 532.383 31.1818 531.489 30.7727C530.595 30.3561 529.886 29.7538 529.364 28.9659C528.848 28.178 528.591 27.2121 528.591 26.0682C528.591 25.0833 528.78 24.2727 529.159 23.6364C529.538 23 530.049 22.4962 530.693 22.125C531.337 21.7538 532.057 21.4735 532.852 21.2841C533.648 21.0947 534.458 20.9508 535.284 20.8523C536.33 20.7311 537.178 20.6326 537.83 20.5568C538.481 20.4735 538.955 20.3409 539.25 20.1591C539.545 19.9773 539.693 19.6818 539.693 19.2727V19.1932C539.693 18.2008 539.413 17.4318 538.852 16.8864C538.299 16.3409 537.473 16.0682 536.375 16.0682C535.231 16.0682 534.33 16.322 533.67 16.8295C533.019 17.3295 532.568 17.8864 532.318 18.5L529.125 17.7727C529.504 16.7121 530.057 15.8561 530.784 15.2045C531.519 14.5455 532.364 14.0682 533.318 13.7727C534.273 13.4697 535.277 13.3182 536.33 13.3182C537.027 13.3182 537.765 13.4015 538.545 13.5682C539.333 13.7273 540.068 14.0227 540.75 14.4545C541.439 14.8864 542.004 15.5038 542.443 16.3068C542.883 17.1023 543.102 18.1364 543.102 19.4091V31H539.784V28.6136H539.648C539.428 29.053 539.098 29.4848 538.659 29.9091C538.22 30.3333 537.655 30.6856 536.966 30.9659C536.277 31.2462 535.451 31.3864 534.489 31.3864ZM535.227 28.6591C536.167 28.6591 536.97 28.4735 537.636 28.1023C538.311 27.7311 538.822 27.2462 539.17 26.6477C539.527 26.0417 539.705 25.3939 539.705 24.7045V22.4545C539.583 22.5758 539.348 22.6894 539 22.7955C538.659 22.8939 538.269 22.9811 537.83 23.0568C537.39 23.125 536.962 23.1894 536.545 23.25C536.129 23.303 535.78 23.3485 535.5 23.3864C534.841 23.4697 534.239 23.6098 533.693 23.8068C533.155 24.0038 532.723 24.2879 532.398 24.6591C532.08 25.0227 531.92 25.5076 531.92 26.1136C531.92 26.9545 532.231 27.5909 532.852 28.0227C533.473 28.447 534.265 28.6591 535.227 28.6591ZM555.776 13.5455V16.2727H546.241V13.5455H555.776ZM548.798 9.36364H552.196V25.875C552.196 26.5341 552.295 27.0303 552.491 27.3636C552.688 27.6894 552.942 27.9129 553.253 28.0341C553.571 28.1477 553.916 28.2045 554.287 28.2045C554.56 28.2045 554.798 28.1856 555.003 28.1477C555.207 28.1098 555.366 28.0795 555.48 28.0568L556.094 30.8636C555.897 30.9394 555.616 31.0152 555.253 31.0909C554.889 31.1742 554.435 31.2197 553.889 31.2273C552.995 31.2424 552.162 31.0833 551.389 30.75C550.616 30.4167 549.991 29.9015 549.514 29.2045C549.037 28.5076 548.798 27.6326 548.798 26.5795V9.36364ZM559.534 31V13.5455H562.932V31H559.534ZM561.25 10.8523C560.659 10.8523 560.152 10.6553 559.727 10.2614C559.311 9.85985 559.102 9.38257 559.102 8.82954C559.102 8.26894 559.311 7.79167 559.727 7.39773C560.152 6.99621 560.659 6.79545 561.25 6.79545C561.841 6.79545 562.345 6.99621 562.761 7.39773C563.186 7.79167 563.398 8.26894 563.398 8.82954C563.398 9.38257 563.186 9.85985 562.761 10.2614C562.345 10.6553 561.841 10.8523 561.25 10.8523ZM574.855 31.3523C573.219 31.3523 571.791 30.9773 570.571 30.2273C569.351 29.4773 568.404 28.428 567.73 27.0795C567.056 25.7311 566.719 24.1553 566.719 22.3523C566.719 20.5417 567.056 18.9583 567.73 17.6023C568.404 16.2462 569.351 15.1932 570.571 14.4432C571.791 13.6932 573.219 13.3182 574.855 13.3182C576.491 13.3182 577.92 13.6932 579.139 14.4432C580.359 15.1932 581.306 16.2462 581.98 17.6023C582.654 18.9583 582.991 20.5417 582.991 22.3523C582.991 24.1553 582.654 25.7311 581.98 27.0795C581.306 28.428 580.359 29.4773 579.139 30.2273C577.92 30.9773 576.491 31.3523 574.855 31.3523ZM574.866 28.5C575.927 28.5 576.806 28.2197 577.503 27.6591C578.2 27.0985 578.715 26.3523 579.048 25.4205C579.389 24.4886 579.56 23.4621 579.56 22.3409C579.56 21.2273 579.389 20.2045 579.048 19.2727C578.715 18.3333 578.2 17.5795 577.503 17.0114C576.806 16.4432 575.927 16.1591 574.866 16.1591C573.798 16.1591 572.912 16.4432 572.207 17.0114C571.51 17.5795 570.991 18.3333 570.651 19.2727C570.317 20.2045 570.151 21.2273 570.151 22.3409C570.151 23.4621 570.317 24.4886 570.651 25.4205C570.991 26.3523 571.51 27.0985 572.207 27.6591C572.912 28.2197 573.798 28.5 574.866 28.5ZM590.182 20.6364V31H586.784V13.5455H590.045V16.3864H590.261C590.663 15.4621 591.292 14.7197 592.148 14.1591C593.011 13.5985 594.098 13.3182 595.409 13.3182C596.598 13.3182 597.64 13.5682 598.534 14.0682C599.428 14.5606 600.121 15.2955 600.614 16.2727C601.106 17.25 601.352 18.4583 601.352 19.8977V31H597.955V20.3068C597.955 19.0417 597.625 18.053 596.966 17.3409C596.307 16.6212 595.402 16.2614 594.25 16.2614C593.462 16.2614 592.761 16.4318 592.148 16.7727C591.542 17.1136 591.061 17.6136 590.705 18.2727C590.356 18.9242 590.182 19.7121 590.182 20.6364Z" fill="#BA1E71"/>
<line x1="93.5" y1="20" x2="93.5" y2="335" stroke="#BA1E71"/>
</svg>
