<svg width="645" height="627" viewBox="0 0 645 627" fill="none" xmlns="http://www.w3.org/2000/svg">
<path d="M367.795 335L313.795 379.167V290.833L367.795 335Z" fill="#BA1E71"/>
<path fill-rule="evenodd" clip-rule="evenodd" d="M0 379L53.7955 335L0 291H313.795V379H0Z" fill="#BA1E71"/>
<path d="M127.807 349V346.443L137.409 335.932C138.536 334.701 139.464 333.631 140.193 332.722C140.922 331.803 141.462 330.941 141.812 330.136C142.172 329.322 142.352 328.47 142.352 327.58C142.352 326.557 142.106 325.671 141.614 324.923C141.131 324.175 140.468 323.598 139.625 323.19C138.782 322.783 137.835 322.58 136.784 322.58C135.667 322.58 134.691 322.812 133.858 323.276C133.034 323.73 132.395 324.369 131.94 325.193C131.495 326.017 131.273 326.983 131.273 328.091H127.92C127.92 326.386 128.313 324.89 129.099 323.602C129.885 322.314 130.955 321.311 132.31 320.591C133.673 319.871 135.203 319.511 136.898 319.511C138.602 319.511 140.113 319.871 141.429 320.591C142.745 321.311 143.777 322.281 144.526 323.503C145.274 324.724 145.648 326.083 145.648 327.58C145.648 328.65 145.454 329.696 145.065 330.719C144.687 331.732 144.024 332.864 143.077 334.114C142.139 335.354 140.837 336.869 139.17 338.659L132.636 345.648V345.875H146.159V349H127.807ZM161.514 349.398C159.374 349.398 157.551 348.815 156.045 347.651C154.54 346.476 153.389 344.777 152.594 342.551C151.798 340.316 151.401 337.617 151.401 334.455C151.401 331.311 151.798 328.626 152.594 326.401C153.399 324.166 154.554 322.461 156.06 321.287C157.575 320.103 159.393 319.511 161.514 319.511C163.635 319.511 165.449 320.103 166.955 321.287C168.47 322.461 169.625 324.166 170.42 326.401C171.225 328.626 171.628 331.311 171.628 334.455C171.628 337.617 171.23 340.316 170.435 342.551C169.639 344.777 168.489 346.476 166.983 347.651C165.477 348.815 163.654 349.398 161.514 349.398ZM161.514 346.273C163.635 346.273 165.283 345.25 166.457 343.205C167.632 341.159 168.219 338.242 168.219 334.455C168.219 331.936 167.949 329.791 167.409 328.02C166.879 326.249 166.112 324.9 165.108 323.972C164.114 323.044 162.916 322.58 161.514 322.58C159.412 322.58 157.769 323.616 156.585 325.69C155.401 327.755 154.81 330.676 154.81 334.455C154.81 336.973 155.075 339.114 155.605 340.875C156.135 342.636 156.898 343.976 157.892 344.895C158.896 345.813 160.103 346.273 161.514 346.273ZM177.026 349V346.443L186.628 335.932C187.755 334.701 188.683 333.631 189.412 332.722C190.141 331.803 190.681 330.941 191.031 330.136C191.391 329.322 191.571 328.47 191.571 327.58C191.571 326.557 191.325 325.671 190.832 324.923C190.349 324.175 189.687 323.598 188.844 323.19C188.001 322.783 187.054 322.58 186.003 322.58C184.885 322.58 183.91 322.812 183.077 323.276C182.253 323.73 181.614 324.369 181.159 325.193C180.714 326.017 180.491 326.983 180.491 328.091H177.139C177.139 326.386 177.532 324.89 178.318 323.602C179.104 322.314 180.174 321.311 181.528 320.591C182.892 319.871 184.421 319.511 186.116 319.511C187.821 319.511 189.331 319.871 190.648 320.591C191.964 321.311 192.996 322.281 193.744 323.503C194.492 324.724 194.866 326.083 194.866 327.58C194.866 328.65 194.672 329.696 194.284 330.719C193.905 331.732 193.242 332.864 192.295 334.114C191.358 335.354 190.056 336.869 188.389 338.659L181.855 345.648V345.875H195.378V349H177.026ZM199.937 343.034V340.136L212.722 319.909H214.824V324.398H213.403L203.744 339.682V339.909H220.96V343.034H199.937ZM213.631 349V342.153V340.804V319.909H216.983V349H213.631ZM248.613 339.909H252.477L255.715 344.17L256.567 345.307L261.397 351.727H257.533L254.352 347.466L253.556 346.386L248.613 339.909ZM262.59 334.455C262.59 337.523 262.036 340.174 260.928 342.409C259.82 344.644 258.3 346.367 256.369 347.58C254.437 348.792 252.23 349.398 249.749 349.398C247.268 349.398 245.062 348.792 243.13 347.58C241.198 346.367 239.678 344.644 238.57 342.409C237.462 340.174 236.908 337.523 236.908 334.455C236.908 331.386 237.462 328.735 238.57 326.5C239.678 324.265 241.198 322.542 243.13 321.33C245.062 320.117 247.268 319.511 249.749 319.511C252.23 319.511 254.437 320.117 256.369 321.33C258.3 322.542 259.82 324.265 260.928 326.5C262.036 328.735 262.59 331.386 262.59 334.455ZM259.181 334.455C259.181 331.936 258.76 329.81 257.917 328.077C257.084 326.344 255.952 325.032 254.522 324.142C253.102 323.252 251.511 322.807 249.749 322.807C247.988 322.807 246.392 323.252 244.962 324.142C243.542 325.032 242.41 326.344 241.567 328.077C240.734 329.81 240.317 331.936 240.317 334.455C240.317 336.973 240.734 339.099 241.567 340.832C242.41 342.565 243.542 343.877 244.962 344.767C246.392 345.657 247.988 346.102 249.749 346.102C251.511 346.102 253.102 345.657 254.522 344.767C255.952 343.877 257.084 342.565 257.917 340.832C258.76 339.099 259.181 336.973 259.181 334.455ZM267.32 343.034V340.136L280.104 319.909H282.207V324.398H280.786L271.127 339.682V339.909H288.343V343.034H267.32ZM281.013 349V342.153V340.804V319.909H284.366V349H281.013Z" fill="black"/>
<circle cx="93.2954" cy="335.5" r="8.5" fill="#D9D9D9"/>
<path d="M93.0085 26.7273C92.0919 26.7273 91.2547 26.5038 90.4972 26.0568C89.7396 25.6023 89.1335 24.9962 88.679 24.2386C88.232 23.4811 88.0085 22.6439 88.0085 21.7273C88.0085 20.803 88.232 19.9659 88.679 19.2159C89.1335 18.4583 89.7396 17.8561 90.4972 17.4091C91.2547 16.9545 92.0919 16.7273 93.0085 16.7273C93.9328 16.7273 94.7699 16.9545 95.5199 17.4091C96.2775 17.8561 96.8797 18.4583 97.3267 19.2159C97.7813 19.9659 98.0085 20.803 98.0085 21.7273C98.0085 22.6439 97.7813 23.4811 97.3267 24.2386C96.8797 24.9962 96.2775 25.6023 95.5199 26.0568C94.7699 26.5038 93.9328 26.7273 93.0085 26.7273ZM119.557 7.72727H123.818L131.227 25.8182H131.5L138.909 7.72727H143.17V31H139.83V14.1591H139.614L132.75 30.9659H129.977L123.114 14.1477H122.898V31H119.557V7.72727ZM153.082 31.3864C151.976 31.3864 150.976 31.1818 150.082 30.7727C149.188 30.3561 148.48 29.7538 147.957 28.9659C147.442 28.178 147.185 27.2121 147.185 26.0682C147.185 25.0833 147.374 24.2727 147.753 23.6364C148.132 23 148.643 22.4962 149.287 22.125C149.931 21.7538 150.651 21.4735 151.446 21.2841C152.241 21.0947 153.052 20.9508 153.878 20.8523C154.923 20.7311 155.772 20.6326 156.423 20.5568C157.075 20.4735 157.548 20.3409 157.844 20.1591C158.139 19.9773 158.287 19.6818 158.287 19.2727V19.1932C158.287 18.2008 158.007 17.4318 157.446 16.8864C156.893 16.3409 156.067 16.0682 154.969 16.0682C153.825 16.0682 152.923 16.322 152.264 16.8295C151.613 17.3295 151.162 17.8864 150.912 18.5L147.719 17.7727C148.098 16.7121 148.651 15.8561 149.378 15.2045C150.113 14.5455 150.957 14.0682 151.912 13.7727C152.866 13.4697 153.87 13.3182 154.923 13.3182C155.62 13.3182 156.359 13.4015 157.139 13.5682C157.927 13.7273 158.662 14.0227 159.344 14.4545C160.033 14.8864 160.598 15.5038 161.037 16.3068C161.476 17.1023 161.696 18.1364 161.696 19.4091V31H158.378V28.6136H158.241C158.022 29.053 157.692 29.4848 157.253 29.9091C156.813 30.3333 156.249 30.6856 155.56 30.9659C154.87 31.2462 154.045 31.3864 153.082 31.3864ZM153.821 28.6591C154.76 28.6591 155.563 28.4735 156.23 28.1023C156.904 27.7311 157.416 27.2462 157.764 26.6477C158.12 26.0417 158.298 25.3939 158.298 24.7045V22.4545C158.177 22.5758 157.942 22.6894 157.594 22.7955C157.253 22.8939 156.863 22.9811 156.423 23.0568C155.984 23.125 155.556 23.1894 155.139 23.25C154.723 23.303 154.374 23.3485 154.094 23.3864C153.435 23.4697 152.832 23.6098 152.287 23.8068C151.749 24.0038 151.317 24.2879 150.991 24.6591C150.673 25.0227 150.514 25.5076 150.514 26.1136C150.514 26.9545 150.825 27.5909 151.446 28.0227C152.067 28.447 152.859 28.6591 153.821 28.6591ZM166.222 31V13.5455H169.506V16.3182H169.688C170.006 15.3788 170.566 14.6402 171.369 14.1023C172.18 13.5568 173.097 13.2841 174.119 13.2841C174.331 13.2841 174.581 13.2917 174.869 13.3068C175.165 13.322 175.396 13.3409 175.562 13.3636V16.6136C175.426 16.5758 175.184 16.5341 174.835 16.4886C174.487 16.4356 174.138 16.4091 173.79 16.4091C172.987 16.4091 172.271 16.5795 171.642 16.9205C171.021 17.2538 170.528 17.7197 170.165 18.3182C169.801 18.9091 169.619 19.5833 169.619 20.3409V31H166.222ZM185.196 37.9091C183.81 37.9091 182.616 37.7273 181.616 37.3636C180.624 37 179.813 36.5189 179.185 35.9205C178.556 35.322 178.086 34.6667 177.776 33.9545L180.696 32.75C180.901 33.0833 181.173 33.4356 181.514 33.8068C181.863 34.1856 182.332 34.5076 182.923 34.7727C183.522 35.0379 184.291 35.1705 185.23 35.1705C186.518 35.1705 187.582 34.8561 188.423 34.2273C189.264 33.6061 189.685 32.6136 189.685 31.25V27.8182H189.469C189.264 28.1894 188.969 28.6023 188.582 29.0568C188.204 29.5114 187.681 29.9053 187.014 30.2386C186.348 30.572 185.48 30.7386 184.412 30.7386C183.033 30.7386 181.791 30.4167 180.685 29.7727C179.586 29.1212 178.715 28.1629 178.071 26.8977C177.435 25.625 177.116 24.0606 177.116 22.2045C177.116 20.3485 177.431 18.7576 178.06 17.4318C178.696 16.1061 179.567 15.0909 180.673 14.3864C181.779 13.6742 183.033 13.3182 184.435 13.3182C185.518 13.3182 186.393 13.5 187.06 13.8636C187.726 14.2197 188.245 14.6364 188.616 15.1136C188.995 15.5909 189.287 16.0114 189.491 16.375H189.741V13.5455H193.071V31.3864C193.071 32.8864 192.723 34.1174 192.026 35.0795C191.329 36.0417 190.385 36.7538 189.196 37.2159C188.014 37.678 186.681 37.9091 185.196 37.9091ZM185.162 27.9205C186.139 27.9205 186.965 27.6932 187.639 27.2386C188.321 26.7765 188.836 26.1174 189.185 25.2614C189.541 24.3977 189.719 23.3636 189.719 22.1591C189.719 20.9848 189.545 19.9508 189.196 19.0568C188.848 18.1629 188.336 17.4659 187.662 16.9659C186.988 16.4583 186.154 16.2045 185.162 16.2045C184.139 16.2045 183.287 16.4697 182.605 17C181.923 17.5227 181.408 18.2348 181.06 19.1364C180.719 20.0379 180.548 21.0455 180.548 22.1591C180.548 23.303 180.723 24.3068 181.071 25.1705C181.42 26.0341 181.935 26.7083 182.616 27.1932C183.306 27.678 184.154 27.9205 185.162 27.9205ZM197.628 31V13.5455H201.026V31H197.628ZM199.344 10.8523C198.753 10.8523 198.245 10.6553 197.821 10.2614C197.404 9.85985 197.196 9.38257 197.196 8.82954C197.196 8.26894 197.404 7.79167 197.821 7.39773C198.245 6.99621 198.753 6.79545 199.344 6.79545C199.935 6.79545 200.438 6.99621 200.855 7.39773C201.279 7.79167 201.491 8.26894 201.491 8.82954C201.491 9.38257 201.279 9.85985 200.855 10.2614C200.438 10.6553 199.935 10.8523 199.344 10.8523ZM208.994 20.6364V31H205.597V13.5455H208.858V16.3864H209.074C209.475 15.4621 210.104 14.7197 210.96 14.1591C211.824 13.5985 212.911 13.3182 214.222 13.3182C215.411 13.3182 216.453 13.5682 217.347 14.0682C218.241 14.5606 218.934 15.2955 219.426 16.2727C219.919 17.25 220.165 18.4583 220.165 19.8977V31H216.767V20.3068C216.767 19.0417 216.438 18.053 215.778 17.3409C215.119 16.6212 214.214 16.2614 213.062 16.2614C212.275 16.2614 211.574 16.4318 210.96 16.7727C210.354 17.1136 209.873 17.6136 209.517 18.2727C209.169 18.9242 208.994 19.7121 208.994 20.6364ZM232.315 10.75V7.72727H250.327V10.75H243.065V31H239.565V10.75H232.315ZM252.222 31V13.5455H255.506V16.3182H255.688C256.006 15.3788 256.566 14.6402 257.369 14.1023C258.18 13.5568 259.097 13.2841 260.119 13.2841C260.331 13.2841 260.581 13.2917 260.869 13.3068C261.165 13.322 261.396 13.3409 261.562 13.3636V16.6136C261.426 16.5758 261.184 16.5341 260.835 16.4886C260.487 16.4356 260.138 16.4091 259.79 16.4091C258.987 16.4091 258.271 16.5795 257.642 16.9205C257.021 17.2538 256.528 17.7197 256.165 18.3182C255.801 18.9091 255.619 19.5833 255.619 20.3409V31H252.222ZM269.426 31.3864C268.32 31.3864 267.32 31.1818 266.426 30.7727C265.532 30.3561 264.824 29.7538 264.301 28.9659C263.786 28.178 263.528 27.2121 263.528 26.0682C263.528 25.0833 263.718 24.2727 264.097 23.6364C264.475 23 264.987 22.4962 265.631 22.125C266.275 21.7538 266.994 21.4735 267.79 21.2841C268.585 21.0947 269.396 20.9508 270.222 20.8523C271.267 20.7311 272.116 20.6326 272.767 20.5568C273.419 20.4735 273.892 20.3409 274.188 20.1591C274.483 19.9773 274.631 19.6818 274.631 19.2727V19.1932C274.631 18.2008 274.35 17.4318 273.79 16.8864C273.237 16.3409 272.411 16.0682 271.312 16.0682C270.169 16.0682 269.267 16.322 268.608 16.8295C267.956 17.3295 267.506 17.8864 267.256 18.5L264.062 17.7727C264.441 16.7121 264.994 15.8561 265.722 15.2045C266.456 14.5455 267.301 14.0682 268.256 13.7727C269.21 13.4697 270.214 13.3182 271.267 13.3182C271.964 13.3182 272.703 13.4015 273.483 13.5682C274.271 13.7273 275.006 14.0227 275.688 14.4545C276.377 14.8864 276.941 15.5038 277.381 16.3068C277.82 17.1023 278.04 18.1364 278.04 19.4091V31H274.722V28.6136H274.585C274.366 29.053 274.036 29.4848 273.597 29.9091C273.157 30.3333 272.593 30.6856 271.903 30.9659C271.214 31.2462 270.388 31.3864 269.426 31.3864ZM270.165 28.6591C271.104 28.6591 271.907 28.4735 272.574 28.1023C273.248 27.7311 273.759 27.2462 274.108 26.6477C274.464 26.0417 274.642 25.3939 274.642 24.7045V22.4545C274.521 22.5758 274.286 22.6894 273.938 22.7955C273.597 22.8939 273.206 22.9811 272.767 23.0568C272.328 23.125 271.9 23.1894 271.483 23.25C271.066 23.303 270.718 23.3485 270.438 23.3864C269.778 23.4697 269.176 23.6098 268.631 23.8068C268.093 24.0038 267.661 24.2879 267.335 24.6591C267.017 25.0227 266.858 25.5076 266.858 26.1136C266.858 26.9545 267.169 27.5909 267.79 28.0227C268.411 28.447 269.203 28.6591 270.165 28.6591ZM289.099 31.3409C287.69 31.3409 286.433 30.9811 285.327 30.2614C284.228 29.5341 283.365 28.5 282.736 27.1591C282.115 25.8106 281.804 24.1932 281.804 22.3068C281.804 20.4205 282.118 18.8068 282.747 17.4659C283.384 16.125 284.255 15.0985 285.361 14.3864C286.467 13.6742 287.721 13.3182 289.122 13.3182C290.205 13.3182 291.077 13.5 291.736 13.8636C292.402 14.2197 292.918 14.6364 293.281 15.1136C293.652 15.5909 293.94 16.0114 294.145 16.375H294.349V7.72727H297.747V31H294.429V28.2841H294.145C293.94 28.6553 293.645 29.0795 293.259 29.5568C292.88 30.0341 292.357 30.4508 291.69 30.8068C291.024 31.1629 290.16 31.3409 289.099 31.3409ZM289.849 28.4432C290.827 28.4432 291.652 28.1856 292.327 27.6705C293.009 27.1477 293.524 26.4242 293.872 25.5C294.228 24.5758 294.406 23.5 294.406 22.2727C294.406 21.0606 294.232 20 293.884 19.0909C293.535 18.1818 293.024 17.4735 292.349 16.9659C291.675 16.4583 290.842 16.2045 289.849 16.2045C288.827 16.2045 287.974 16.4697 287.293 17C286.611 17.5303 286.096 18.2538 285.747 19.1705C285.406 20.0871 285.236 21.1212 285.236 22.2727C285.236 23.4394 285.41 24.4886 285.759 25.4205C286.107 26.3523 286.622 27.0909 287.304 27.6364C287.993 28.1742 288.842 28.4432 289.849 28.4432ZM310.119 31.3523C308.4 31.3523 306.919 30.9848 305.676 30.25C304.441 29.5076 303.487 28.4659 302.812 27.125C302.146 25.7765 301.812 24.197 301.812 22.3864C301.812 20.5985 302.146 19.0227 302.812 17.6591C303.487 16.2955 304.426 15.2311 305.631 14.4659C306.843 13.7008 308.259 13.3182 309.881 13.3182C310.866 13.3182 311.82 13.4811 312.744 13.8068C313.669 14.1326 314.498 14.6439 315.233 15.3409C315.968 16.0379 316.547 16.9432 316.972 18.0568C317.396 19.1629 317.608 20.5076 317.608 22.0909V23.2955H303.733V20.75H314.278C314.278 19.8561 314.097 19.0644 313.733 18.375C313.369 17.678 312.858 17.1288 312.199 16.7273C311.547 16.3258 310.782 16.125 309.903 16.125C308.949 16.125 308.116 16.3598 307.403 16.8295C306.699 17.2917 306.153 17.8977 305.767 18.6477C305.388 19.3902 305.199 20.197 305.199 21.0682V23.0568C305.199 24.2235 305.403 25.2159 305.812 26.0341C306.229 26.8523 306.809 27.4773 307.551 27.9091C308.294 28.3333 309.161 28.5455 310.153 28.5455C310.797 28.5455 311.384 28.4545 311.915 28.2727C312.445 28.0833 312.903 27.803 313.29 27.4318C313.676 27.0606 313.972 26.6023 314.176 26.0568L317.392 26.6364C317.134 27.5833 316.672 28.4129 316.006 29.125C315.347 29.8295 314.517 30.3788 313.517 30.7727C312.525 31.1591 311.392 31.3523 310.119 31.3523ZM333.631 31L328.494 13.5455H332.006L335.426 26.3636H335.597L339.028 13.5455H342.54L345.949 26.3068H346.119L349.517 13.5455H353.028L347.903 31H344.438L340.892 18.3977H340.631L337.085 31H333.631ZM356.253 31V13.5455H359.651V31H356.253ZM357.969 10.8523C357.378 10.8523 356.87 10.6553 356.446 10.2614C356.029 9.85985 355.821 9.38257 355.821 8.82954C355.821 8.26894 356.029 7.79167 356.446 7.39773C356.87 6.99621 357.378 6.79545 357.969 6.79545C358.56 6.79545 359.063 6.99621 359.48 7.39773C359.904 7.79167 360.116 8.26894 360.116 8.82954C360.116 9.38257 359.904 9.85985 359.48 10.2614C359.063 10.6553 358.56 10.8523 357.969 10.8523ZM372.369 13.5455V16.2727H362.835V13.5455H372.369ZM365.392 9.36364H368.79V25.875C368.79 26.5341 368.888 27.0303 369.085 27.3636C369.282 27.6894 369.536 27.9129 369.847 28.0341C370.165 28.1477 370.509 28.2045 370.881 28.2045C371.153 28.2045 371.392 28.1856 371.597 28.1477C371.801 28.1098 371.96 28.0795 372.074 28.0568L372.688 30.8636C372.491 30.9394 372.21 31.0152 371.847 31.0909C371.483 31.1742 371.028 31.2197 370.483 31.2273C369.589 31.2424 368.756 31.0833 367.983 30.75C367.21 30.4167 366.585 29.9015 366.108 29.2045C365.631 28.5076 365.392 27.6326 365.392 26.5795V9.36364ZM379.901 20.6364V31H376.503V7.72727H379.855V16.3864H380.071C380.48 15.447 381.105 14.7008 381.946 14.1477C382.787 13.5947 383.885 13.3182 385.241 13.3182C386.438 13.3182 387.484 13.5644 388.378 14.0568C389.279 14.5492 389.976 15.2841 390.469 16.2614C390.969 17.2311 391.219 18.4432 391.219 19.8977V31H387.821V20.3068C387.821 19.0265 387.491 18.0341 386.832 17.3295C386.173 16.6174 385.257 16.2614 384.082 16.2614C383.279 16.2614 382.56 16.4318 381.923 16.7727C381.295 17.1136 380.798 17.6136 380.435 18.2727C380.079 18.9242 379.901 19.7121 379.901 20.6364ZM404.494 31V7.72727H408.006V27.9773H418.551V31H404.494ZM429.636 31.3523C428 31.3523 426.572 30.9773 425.352 30.2273C424.133 29.4773 423.186 28.428 422.511 27.0795C421.837 25.7311 421.5 24.1553 421.5 22.3523C421.5 20.5417 421.837 18.9583 422.511 17.6023C423.186 16.2462 424.133 15.1932 425.352 14.4432C426.572 13.6932 428 13.3182 429.636 13.3182C431.273 13.3182 432.701 13.6932 433.92 14.4432C435.14 15.1932 436.087 16.2462 436.761 17.6023C437.436 18.9583 437.773 20.5417 437.773 22.3523C437.773 24.1553 437.436 25.7311 436.761 27.0795C436.087 28.428 435.14 29.4773 433.92 30.2273C432.701 30.9773 431.273 31.3523 429.636 31.3523ZM429.648 28.5C430.708 28.5 431.587 28.2197 432.284 27.6591C432.981 27.0985 433.496 26.3523 433.83 25.4205C434.17 24.4886 434.341 23.4621 434.341 22.3409C434.341 21.2273 434.17 20.2045 433.83 19.2727C433.496 18.3333 432.981 17.5795 432.284 17.0114C431.587 16.4432 430.708 16.1591 429.648 16.1591C428.58 16.1591 427.693 16.4432 426.989 17.0114C426.292 17.5795 425.773 18.3333 425.432 19.2727C425.098 20.2045 424.932 21.2273 424.932 22.3409C424.932 23.4621 425.098 24.4886 425.432 25.4205C425.773 26.3523 426.292 27.0985 426.989 27.6591C427.693 28.2197 428.58 28.5 429.648 28.5ZM444.963 20.6364V31H441.565V13.5455H444.827V16.3864H445.043C445.444 15.4621 446.073 14.7197 446.929 14.1591C447.793 13.5985 448.88 13.3182 450.19 13.3182C451.38 13.3182 452.421 13.5682 453.315 14.0682C454.209 14.5606 454.902 15.2955 455.395 16.2727C455.887 17.25 456.134 18.4583 456.134 19.8977V31H452.736V20.3068C452.736 19.0417 452.406 18.053 451.747 17.3409C451.088 16.6212 450.183 16.2614 449.031 16.2614C448.243 16.2614 447.543 16.4318 446.929 16.7727C446.323 17.1136 445.842 17.6136 445.486 18.2727C445.137 18.9242 444.963 19.7121 444.963 20.6364ZM468.009 37.9091C466.622 37.9091 465.429 37.7273 464.429 37.3636C463.437 37 462.626 36.5189 461.997 35.9205C461.368 35.322 460.899 34.6667 460.588 33.9545L463.509 32.75C463.713 33.0833 463.986 33.4356 464.327 33.8068C464.675 34.1856 465.145 34.5076 465.736 34.7727C466.334 35.0379 467.103 35.1705 468.043 35.1705C469.33 35.1705 470.395 34.8561 471.236 34.2273C472.077 33.6061 472.497 32.6136 472.497 31.25V27.8182H472.281C472.077 28.1894 471.781 28.6023 471.395 29.0568C471.016 29.5114 470.493 29.9053 469.827 30.2386C469.16 30.572 468.293 30.7386 467.224 30.7386C465.846 30.7386 464.603 30.4167 463.497 29.7727C462.399 29.1212 461.527 28.1629 460.884 26.8977C460.247 25.625 459.929 24.0606 459.929 22.2045C459.929 20.3485 460.243 18.7576 460.872 17.4318C461.509 16.1061 462.38 15.0909 463.486 14.3864C464.592 13.6742 465.846 13.3182 467.247 13.3182C468.33 13.3182 469.205 13.5 469.872 13.8636C470.539 14.2197 471.058 14.6364 471.429 15.1136C471.808 15.5909 472.099 16.0114 472.304 16.375H472.554V13.5455H475.884V31.3864C475.884 32.8864 475.535 34.1174 474.838 35.0795C474.141 36.0417 473.198 36.7538 472.009 37.2159C470.827 37.678 469.493 37.9091 468.009 37.9091ZM467.974 27.9205C468.952 27.9205 469.777 27.6932 470.452 27.2386C471.134 26.7765 471.649 26.1174 471.997 25.2614C472.353 24.3977 472.531 23.3636 472.531 22.1591C472.531 20.9848 472.357 19.9508 472.009 19.0568C471.66 18.1629 471.149 17.4659 470.474 16.9659C469.8 16.4583 468.967 16.2045 467.974 16.2045C466.952 16.2045 466.099 16.4697 465.418 17C464.736 17.5227 464.221 18.2348 463.872 19.1364C463.531 20.0379 463.361 21.0455 463.361 22.1591C463.361 23.303 463.535 24.3068 463.884 25.1705C464.232 26.0341 464.747 26.7083 465.429 27.1932C466.118 27.678 466.967 27.9205 467.974 27.9205ZM493.989 31.3864C492.883 31.3864 491.883 31.1818 490.989 30.7727C490.095 30.3561 489.386 29.7538 488.864 28.9659C488.348 28.178 488.091 27.2121 488.091 26.0682C488.091 25.0833 488.28 24.2727 488.659 23.6364C489.038 23 489.549 22.4962 490.193 22.125C490.837 21.7538 491.557 21.4735 492.352 21.2841C493.148 21.0947 493.958 20.9508 494.784 20.8523C495.83 20.7311 496.678 20.6326 497.33 20.5568C497.981 20.4735 498.455 20.3409 498.75 20.1591C499.045 19.9773 499.193 19.6818 499.193 19.2727V19.1932C499.193 18.2008 498.913 17.4318 498.352 16.8864C497.799 16.3409 496.973 16.0682 495.875 16.0682C494.731 16.0682 493.83 16.322 493.17 16.8295C492.519 17.3295 492.068 17.8864 491.818 18.5L488.625 17.7727C489.004 16.7121 489.557 15.8561 490.284 15.2045C491.019 14.5455 491.864 14.0682 492.818 13.7727C493.773 13.4697 494.777 13.3182 495.83 13.3182C496.527 13.3182 497.265 13.4015 498.045 13.5682C498.833 13.7273 499.568 14.0227 500.25 14.4545C500.939 14.8864 501.504 15.5038 501.943 16.3068C502.383 17.1023 502.602 18.1364 502.602 19.4091V31H499.284V28.6136H499.148C498.928 29.053 498.598 29.4848 498.159 29.9091C497.72 30.3333 497.155 30.6856 496.466 30.9659C495.777 31.2462 494.951 31.3864 493.989 31.3864ZM494.727 28.6591C495.667 28.6591 496.47 28.4735 497.136 28.1023C497.811 27.7311 498.322 27.2462 498.67 26.6477C499.027 26.0417 499.205 25.3939 499.205 24.7045V22.4545C499.083 22.5758 498.848 22.6894 498.5 22.7955C498.159 22.8939 497.769 22.9811 497.33 23.0568C496.89 23.125 496.462 23.1894 496.045 23.25C495.629 23.303 495.28 23.3485 495 23.3864C494.341 23.4697 493.739 23.6098 493.193 23.8068C492.655 24.0038 492.223 24.2879 491.898 24.6591C491.58 25.0227 491.42 25.5076 491.42 26.1136C491.42 26.9545 491.731 27.5909 492.352 28.0227C492.973 28.447 493.765 28.6591 494.727 28.6591ZM510.526 20.6364V31H507.128V13.5455H510.389V16.3864H510.605C511.007 15.4621 511.635 14.7197 512.491 14.1591C513.355 13.5985 514.442 13.3182 515.753 13.3182C516.942 13.3182 517.984 13.5682 518.878 14.0682C519.772 14.5606 520.465 15.2955 520.957 16.2727C521.45 17.25 521.696 18.4583 521.696 19.8977V31H518.298V20.3068C518.298 19.0417 517.969 18.053 517.31 17.3409C516.651 16.6212 515.745 16.2614 514.594 16.2614C513.806 16.2614 513.105 16.4318 512.491 16.7727C511.885 17.1136 511.404 17.6136 511.048 18.2727C510.7 18.9242 510.526 19.7121 510.526 20.6364ZM532.787 31.3409C531.378 31.3409 530.12 30.9811 529.014 30.2614C527.916 29.5341 527.052 28.5 526.423 27.1591C525.802 25.8106 525.491 24.1932 525.491 22.3068C525.491 20.4205 525.806 18.8068 526.435 17.4659C527.071 16.125 527.942 15.0985 529.048 14.3864C530.154 13.6742 531.408 13.3182 532.81 13.3182C533.893 13.3182 534.764 13.5 535.423 13.8636C536.09 14.2197 536.605 14.6364 536.969 15.1136C537.34 15.5909 537.628 16.0114 537.832 16.375H538.037V7.72727H541.435V31H538.116V28.2841H537.832C537.628 28.6553 537.332 29.0795 536.946 29.5568C536.567 30.0341 536.045 30.4508 535.378 30.8068C534.711 31.1629 533.848 31.3409 532.787 31.3409ZM533.537 28.4432C534.514 28.4432 535.34 28.1856 536.014 27.6705C536.696 27.1477 537.211 26.4242 537.56 25.5C537.916 24.5758 538.094 23.5 538.094 22.2727C538.094 21.0606 537.92 20 537.571 19.0909C537.223 18.1818 536.711 17.4735 536.037 16.9659C535.363 16.4583 534.529 16.2045 533.537 16.2045C532.514 16.2045 531.662 16.4697 530.98 17C530.298 17.5303 529.783 18.2538 529.435 19.1705C529.094 20.0871 528.923 21.1212 528.923 22.2727C528.923 23.4394 529.098 24.4886 529.446 25.4205C529.795 26.3523 530.31 27.0909 530.991 27.6364C531.681 28.1742 532.529 28.4432 533.537 28.4432ZM567.719 13.8409C567.598 12.7652 567.098 11.9318 566.219 11.3409C565.34 10.7424 564.234 10.4432 562.901 10.4432C561.946 10.4432 561.12 10.5947 560.423 10.8977C559.726 11.1932 559.185 11.6023 558.798 12.125C558.42 12.6402 558.23 13.2273 558.23 13.8864C558.23 14.4394 558.359 14.9167 558.616 15.3182C558.882 15.7197 559.226 16.0568 559.651 16.3295C560.082 16.5947 560.545 16.8182 561.037 17C561.529 17.1742 562.003 17.3182 562.457 17.4318L564.73 18.0227C565.473 18.2045 566.234 18.4508 567.014 18.7614C567.795 19.072 568.518 19.4811 569.185 19.9886C569.851 20.4962 570.389 21.125 570.798 21.875C571.215 22.625 571.423 23.5227 571.423 24.5682C571.423 25.8864 571.082 27.0568 570.401 28.0795C569.726 29.1023 568.745 29.9091 567.457 30.5C566.177 31.0909 564.628 31.3864 562.81 31.3864C561.067 31.3864 559.56 31.1098 558.287 30.5568C557.014 30.0038 556.018 29.2197 555.298 28.2045C554.579 27.1818 554.181 25.9697 554.105 24.5682H557.628C557.696 25.4091 557.969 26.1098 558.446 26.6705C558.931 27.2235 559.548 27.6364 560.298 27.9091C561.056 28.1742 561.885 28.3068 562.787 28.3068C563.779 28.3068 564.662 28.1515 565.435 27.8409C566.215 27.5227 566.829 27.0833 567.276 26.5227C567.723 25.9545 567.946 25.2917 567.946 24.5341C567.946 23.8447 567.749 23.2803 567.355 22.8409C566.969 22.4015 566.442 22.0379 565.776 21.75C565.116 21.4621 564.37 21.2083 563.537 20.9886L560.787 20.2386C558.923 19.7311 557.446 18.9848 556.355 18C555.272 17.0152 554.73 15.7121 554.73 14.0909C554.73 12.75 555.094 11.5795 555.821 10.5795C556.548 9.57954 557.533 8.80303 558.776 8.25C560.018 7.68939 561.42 7.40909 562.98 7.40909C564.556 7.40909 565.946 7.68561 567.151 8.23864C568.363 8.79167 569.317 9.55303 570.014 10.5227C570.711 11.4848 571.075 12.5909 571.105 13.8409H567.719ZM582.699 31.3523C581.063 31.3523 579.634 30.9773 578.415 30.2273C577.195 29.4773 576.248 28.428 575.574 27.0795C574.9 25.7311 574.562 24.1553 574.562 22.3523C574.562 20.5417 574.9 18.9583 575.574 17.6023C576.248 16.2462 577.195 15.1932 578.415 14.4432C579.634 13.6932 581.063 13.3182 582.699 13.3182C584.335 13.3182 585.763 13.6932 586.983 14.4432C588.203 15.1932 589.15 16.2462 589.824 17.6023C590.498 18.9583 590.835 20.5417 590.835 22.3523C590.835 24.1553 590.498 25.7311 589.824 27.0795C589.15 28.428 588.203 29.4773 586.983 30.2273C585.763 30.9773 584.335 31.3523 582.699 31.3523ZM582.71 28.5C583.771 28.5 584.65 28.2197 585.347 27.6591C586.044 27.0985 586.559 26.3523 586.892 25.4205C587.233 24.4886 587.403 23.4621 587.403 22.3409C587.403 21.2273 587.233 20.2045 586.892 19.2727C586.559 18.3333 586.044 17.5795 585.347 17.0114C584.65 16.4432 583.771 16.1591 582.71 16.1591C581.642 16.1591 580.756 16.4432 580.051 17.0114C579.354 17.5795 578.835 18.3333 578.494 19.2727C578.161 20.2045 577.994 21.2273 577.994 22.3409C577.994 23.4621 578.161 24.4886 578.494 25.4205C578.835 26.3523 579.354 27.0985 580.051 27.6591C580.756 28.2197 581.642 28.5 582.71 28.5ZM594.628 31V13.5455H597.912V16.3182H598.094C598.412 15.3788 598.973 14.6402 599.776 14.1023C600.586 13.5568 601.503 13.2841 602.526 13.2841C602.738 13.2841 602.988 13.2917 603.276 13.3068C603.571 13.322 603.802 13.3409 603.969 13.3636V16.6136C603.832 16.5758 603.59 16.5341 603.241 16.4886C602.893 16.4356 602.545 16.4091 602.196 16.4091C601.393 16.4091 600.677 16.5795 600.048 16.9205C599.427 17.2538 598.935 17.7197 598.571 18.3182C598.207 18.9091 598.026 19.5833 598.026 20.3409V31H594.628ZM616.088 13.5455V16.2727H606.554V13.5455H616.088ZM609.111 9.36364H612.509V25.875C612.509 26.5341 612.607 27.0303 612.804 27.3636C613.001 27.6894 613.255 27.9129 613.565 28.0341C613.884 28.1477 614.228 28.2045 614.599 28.2045C614.872 28.2045 615.111 28.1856 615.315 28.1477C615.52 28.1098 615.679 28.0795 615.793 28.0568L616.406 30.8636C616.209 30.9394 615.929 31.0152 615.565 31.0909C615.202 31.1742 614.747 31.2197 614.202 31.2273C613.308 31.2424 612.474 31.0833 611.702 30.75C610.929 30.4167 610.304 29.9015 609.827 29.2045C609.349 28.5076 609.111 27.6326 609.111 26.5795V9.36364ZM134.523 46.7273H138.045V62.0341C138.045 63.6629 137.663 65.1061 136.898 66.3636C136.133 67.6136 135.057 68.5985 133.67 69.3182C132.284 70.0303 130.659 70.3864 128.795 70.3864C126.939 70.3864 125.318 70.0303 123.932 69.3182C122.545 68.5985 121.47 67.6136 120.705 66.3636C119.939 65.1061 119.557 63.6629 119.557 62.0341V46.7273H123.068V61.75C123.068 62.803 123.299 63.7386 123.761 64.5568C124.231 65.375 124.894 66.0189 125.75 66.4886C126.606 66.9508 127.621 67.1818 128.795 67.1818C129.977 67.1818 130.996 66.9508 131.852 66.4886C132.716 66.0189 133.375 65.375 133.83 64.5568C134.292 63.7386 134.523 62.803 134.523 61.75V46.7273ZM142.878 76.5455V52.5455H146.196V55.375H146.48C146.677 55.0114 146.961 54.5909 147.332 54.1136C147.704 53.6364 148.219 53.2197 148.878 52.8636C149.537 52.5 150.408 52.3182 151.491 52.3182C152.901 52.3182 154.158 52.6742 155.264 53.3864C156.37 54.0985 157.238 55.125 157.866 56.4659C158.503 57.8068 158.821 59.4205 158.821 61.3068C158.821 63.1932 158.507 64.8106 157.878 66.1591C157.249 67.5 156.385 68.5341 155.287 69.2614C154.188 69.9811 152.935 70.3409 151.526 70.3409C150.465 70.3409 149.598 70.1629 148.923 69.8068C148.257 69.4508 147.734 69.0341 147.355 68.5568C146.976 68.0795 146.685 67.6553 146.48 67.2841H146.276V76.5455H142.878ZM146.207 61.2727C146.207 62.5 146.385 63.5758 146.741 64.5C147.098 65.4242 147.613 66.1477 148.287 66.6705C148.961 67.1856 149.787 67.4432 150.764 67.4432C151.779 67.4432 152.628 67.1742 153.31 66.6364C153.991 66.0909 154.507 65.3523 154.855 64.4205C155.211 63.4886 155.389 62.4394 155.389 61.2727C155.389 60.1212 155.215 59.0871 154.866 58.1705C154.526 57.2538 154.01 56.5303 153.321 56C152.639 55.4697 151.787 55.2045 150.764 55.2045C149.779 55.2045 148.946 55.4583 148.264 55.9659C147.59 56.4735 147.079 57.1818 146.73 58.0909C146.382 59 146.207 60.0606 146.207 61.2727ZM170.776 52.5455V55.2727H161.241V52.5455H170.776ZM163.798 48.3636H167.196V64.875C167.196 65.5341 167.295 66.0303 167.491 66.3636C167.688 66.6894 167.942 66.9129 168.253 67.0341C168.571 67.1477 168.916 67.2045 169.287 67.2045C169.56 67.2045 169.798 67.1856 170.003 67.1477C170.207 67.1098 170.366 67.0795 170.48 67.0568L171.094 69.8636C170.897 69.9394 170.616 70.0152 170.253 70.0909C169.889 70.1742 169.435 70.2197 168.889 70.2273C167.995 70.2424 167.162 70.0833 166.389 69.75C165.616 69.4167 164.991 68.9015 164.514 68.2045C164.037 67.5076 163.798 66.6326 163.798 65.5795V48.3636ZM181.699 70.3523C180.063 70.3523 178.634 69.9773 177.415 69.2273C176.195 68.4773 175.248 67.428 174.574 66.0795C173.9 64.7311 173.562 63.1553 173.562 61.3523C173.562 59.5417 173.9 57.9583 174.574 56.6023C175.248 55.2462 176.195 54.1932 177.415 53.4432C178.634 52.6932 180.063 52.3182 181.699 52.3182C183.335 52.3182 184.763 52.6932 185.983 53.4432C187.203 54.1932 188.15 55.2462 188.824 56.6023C189.498 57.9583 189.835 59.5417 189.835 61.3523C189.835 63.1553 189.498 64.7311 188.824 66.0795C188.15 67.428 187.203 68.4773 185.983 69.2273C184.763 69.9773 183.335 70.3523 181.699 70.3523ZM181.71 67.5C182.771 67.5 183.65 67.2197 184.347 66.6591C185.044 66.0985 185.559 65.3523 185.892 64.4205C186.233 63.4886 186.403 62.4621 186.403 61.3409C186.403 60.2273 186.233 59.2045 185.892 58.2727C185.559 57.3333 185.044 56.5795 184.347 56.0114C183.65 55.4432 182.771 55.1591 181.71 55.1591C180.642 55.1591 179.756 55.4432 179.051 56.0114C178.354 56.5795 177.835 57.3333 177.494 58.2727C177.161 59.2045 176.994 60.2273 176.994 61.3409C176.994 62.4621 177.161 63.4886 177.494 64.4205C177.835 65.3523 178.354 66.0985 179.051 66.6591C179.756 67.2197 180.642 67.5 181.71 67.5ZM210.881 46.7273V70H207.358V50.25H207.222L201.653 53.8864V50.5227L207.46 46.7273H210.881ZM225.278 70.3864C223.483 70.3788 221.949 69.9053 220.676 68.9659C219.403 68.0265 218.43 66.6591 217.756 64.8636C217.081 63.0682 216.744 60.9053 216.744 58.375C216.744 55.8523 217.081 53.697 217.756 51.9091C218.438 50.1212 219.415 48.7576 220.688 47.8182C221.968 46.8788 223.498 46.4091 225.278 46.4091C227.059 46.4091 228.585 46.8826 229.858 47.8295C231.131 48.7689 232.104 50.1326 232.778 51.9205C233.46 53.7008 233.801 55.8523 233.801 58.375C233.801 60.9129 233.464 63.0795 232.79 64.875C232.116 66.6629 231.142 68.0303 229.869 68.9773C228.597 69.9167 227.066 70.3864 225.278 70.3864ZM225.278 67.3523C226.854 67.3523 228.085 66.5833 228.972 65.0455C229.866 63.5076 230.312 61.2841 230.312 58.375C230.312 56.4432 230.108 54.8106 229.699 53.4773C229.297 52.1364 228.718 51.1212 227.96 50.4318C227.21 49.7348 226.316 49.3864 225.278 49.3864C223.71 49.3864 222.479 50.1591 221.585 51.7045C220.691 53.25 220.241 55.4735 220.233 58.375C220.233 60.3144 220.434 61.9545 220.835 63.2955C221.244 64.6288 221.824 65.6402 222.574 66.3295C223.324 67.0114 224.225 67.3523 225.278 67.3523ZM240.594 46.7273L246.162 55.8295H246.344L251.912 46.7273H255.98L248.73 58.3636L256.026 70H251.935L246.344 61.0227H246.162L240.571 70H236.48L243.901 58.3636L236.526 46.7273H240.594ZM267.932 70V46.7273H271.443V66.9773H281.989V70H267.932ZM293.244 70.3523C291.525 70.3523 290.044 69.9848 288.801 69.25C287.566 68.5076 286.612 67.4659 285.938 66.125C285.271 64.7765 284.938 63.197 284.938 61.3864C284.938 59.5985 285.271 58.0227 285.938 56.6591C286.612 55.2955 287.551 54.2311 288.756 53.4659C289.968 52.7008 291.384 52.3182 293.006 52.3182C293.991 52.3182 294.945 52.4811 295.869 52.8068C296.794 53.1326 297.623 53.6439 298.358 54.3409C299.093 55.0379 299.672 55.9432 300.097 57.0568C300.521 58.1629 300.733 59.5076 300.733 61.0909V62.2955H286.858V59.75H297.403C297.403 58.8561 297.222 58.0644 296.858 57.375C296.494 56.678 295.983 56.1288 295.324 55.7273C294.672 55.3258 293.907 55.125 293.028 55.125C292.074 55.125 291.241 55.3598 290.528 55.8295C289.824 56.2917 289.278 56.8977 288.892 57.6477C288.513 58.3902 288.324 59.197 288.324 60.0682V62.0568C288.324 63.2235 288.528 64.2159 288.938 65.0341C289.354 65.8523 289.934 66.4773 290.676 66.9091C291.419 67.3333 292.286 67.5455 293.278 67.5455C293.922 67.5455 294.509 67.4545 295.04 67.2727C295.57 67.0833 296.028 66.803 296.415 66.4318C296.801 66.0606 297.097 65.6023 297.301 65.0568L300.517 65.6364C300.259 66.5833 299.797 67.4129 299.131 68.125C298.472 68.8295 297.642 69.3788 296.642 69.7727C295.65 70.1591 294.517 70.3523 293.244 70.3523ZM318.935 52.5455L312.605 70H308.969L302.628 52.5455H306.276L310.696 65.9773H310.878L315.287 52.5455H318.935ZM329.057 70.3523C327.337 70.3523 325.856 69.9848 324.614 69.25C323.379 68.5076 322.424 67.4659 321.75 66.125C321.083 64.7765 320.75 63.197 320.75 61.3864C320.75 59.5985 321.083 58.0227 321.75 56.6591C322.424 55.2955 323.364 54.2311 324.568 53.4659C325.78 52.7008 327.197 52.3182 328.818 52.3182C329.803 52.3182 330.758 52.4811 331.682 52.8068C332.606 53.1326 333.436 53.6439 334.17 54.3409C334.905 55.0379 335.485 55.9432 335.909 57.0568C336.333 58.1629 336.545 59.5076 336.545 61.0909V62.2955H322.67V59.75H333.216C333.216 58.8561 333.034 58.0644 332.67 57.375C332.307 56.678 331.795 56.1288 331.136 55.7273C330.485 55.3258 329.72 55.125 328.841 55.125C327.886 55.125 327.053 55.3598 326.341 55.8295C325.636 56.2917 325.091 56.8977 324.705 57.6477C324.326 58.3902 324.136 59.197 324.136 60.0682V62.0568C324.136 63.2235 324.341 64.2159 324.75 65.0341C325.167 65.8523 325.746 66.4773 326.489 66.9091C327.231 67.3333 328.098 67.5455 329.091 67.5455C329.735 67.5455 330.322 67.4545 330.852 67.2727C331.383 67.0833 331.841 66.803 332.227 66.4318C332.614 66.0606 332.909 65.6023 333.114 65.0568L336.33 65.6364C336.072 66.5833 335.61 67.4129 334.943 68.125C334.284 68.8295 333.455 69.3788 332.455 69.7727C331.462 70.1591 330.33 70.3523 329.057 70.3523ZM340.315 70V52.5455H343.599V55.3182H343.781C344.099 54.3788 344.66 53.6402 345.463 53.1023C346.274 52.5568 347.19 52.2841 348.213 52.2841C348.425 52.2841 348.675 52.2917 348.963 52.3068C349.259 52.322 349.49 52.3409 349.656 52.3636V55.6136C349.52 55.5758 349.277 55.5341 348.929 55.4886C348.58 55.4356 348.232 55.4091 347.884 55.4091C347.08 55.4091 346.365 55.5795 345.736 55.9205C345.115 56.2538 344.622 56.7197 344.259 57.3182C343.895 57.9091 343.713 58.5833 343.713 59.3409V70H340.315ZM357.52 70.3864C356.414 70.3864 355.414 70.1818 354.52 69.7727C353.626 69.3561 352.918 68.7538 352.395 67.9659C351.88 67.178 351.622 66.2121 351.622 65.0682C351.622 64.0833 351.812 63.2727 352.19 62.6364C352.569 62 353.08 61.4962 353.724 61.125C354.368 60.7538 355.088 60.4735 355.884 60.2841C356.679 60.0947 357.49 59.9508 358.315 59.8523C359.361 59.7311 360.209 59.6326 360.861 59.5568C361.512 59.4735 361.986 59.3409 362.281 59.1591C362.577 58.9773 362.724 58.6818 362.724 58.2727V58.1932C362.724 57.2008 362.444 56.4318 361.884 55.8864C361.33 55.3409 360.505 55.0682 359.406 55.0682C358.262 55.0682 357.361 55.322 356.702 55.8295C356.05 56.3295 355.599 56.8864 355.349 57.5L352.156 56.7727C352.535 55.7121 353.088 54.8561 353.815 54.2045C354.55 53.5455 355.395 53.0682 356.349 52.7727C357.304 52.4697 358.308 52.3182 359.361 52.3182C360.058 52.3182 360.796 52.4015 361.577 52.5682C362.365 52.7273 363.099 53.0227 363.781 53.4545C364.471 53.8864 365.035 54.5038 365.474 55.3068C365.914 56.1023 366.134 57.1364 366.134 58.4091V70H362.815V67.6136H362.679C362.459 68.053 362.13 68.4848 361.69 68.9091C361.251 69.3333 360.687 69.6856 359.997 69.9659C359.308 70.2462 358.482 70.3864 357.52 70.3864ZM358.259 67.6591C359.198 67.6591 360.001 67.4735 360.668 67.1023C361.342 66.7311 361.853 66.2462 362.202 65.6477C362.558 65.0417 362.736 64.3939 362.736 63.7045V61.4545C362.615 61.5758 362.38 61.6894 362.031 61.7955C361.69 61.8939 361.3 61.9811 360.861 62.0568C360.421 62.125 359.993 62.1894 359.577 62.25C359.16 62.303 358.812 62.3485 358.531 62.3864C357.872 62.4697 357.27 62.6098 356.724 62.8068C356.187 63.0038 355.755 63.2879 355.429 63.6591C355.111 64.0227 354.952 64.5076 354.952 65.1136C354.952 65.9545 355.262 66.5909 355.884 67.0227C356.505 67.447 357.296 67.6591 358.259 67.6591ZM377.977 76.9091C376.591 76.9091 375.398 76.7273 374.398 76.3636C373.405 76 372.595 75.5189 371.966 74.9205C371.337 74.322 370.867 73.6667 370.557 72.9545L373.477 71.75C373.682 72.0833 373.955 72.4356 374.295 72.8068C374.644 73.1856 375.114 73.5076 375.705 73.7727C376.303 74.0379 377.072 74.1705 378.011 74.1705C379.299 74.1705 380.364 73.8561 381.205 73.2273C382.045 72.6061 382.466 71.6136 382.466 70.25V66.8182H382.25C382.045 67.1894 381.75 67.6023 381.364 68.0568C380.985 68.5114 380.462 68.9053 379.795 69.2386C379.129 69.572 378.261 69.7386 377.193 69.7386C375.814 69.7386 374.572 69.4167 373.466 68.7727C372.367 68.1212 371.496 67.1629 370.852 65.8977C370.216 64.625 369.898 63.0606 369.898 61.2045C369.898 59.3485 370.212 57.7576 370.841 56.4318C371.477 55.1061 372.348 54.0909 373.455 53.3864C374.561 52.6742 375.814 52.3182 377.216 52.3182C378.299 52.3182 379.174 52.5 379.841 52.8636C380.508 53.2197 381.027 53.6364 381.398 54.1136C381.777 54.5909 382.068 55.0114 382.273 55.375H382.523V52.5455H385.852V70.3864C385.852 71.8864 385.504 73.1174 384.807 74.0795C384.11 75.0417 383.167 75.7538 381.977 76.2159C380.795 76.678 379.462 76.9091 377.977 76.9091ZM377.943 66.9205C378.92 66.9205 379.746 66.6932 380.42 66.2386C381.102 65.7765 381.617 65.1174 381.966 64.2614C382.322 63.3977 382.5 62.3636 382.5 61.1591C382.5 59.9848 382.326 58.9508 381.977 58.0568C381.629 57.1629 381.117 56.4659 380.443 55.9659C379.769 55.4583 378.936 55.2045 377.943 55.2045C376.92 55.2045 376.068 55.4697 375.386 56C374.705 56.5227 374.189 57.2348 373.841 58.1364C373.5 59.0379 373.33 60.0455 373.33 61.1591C373.33 62.303 373.504 63.3068 373.852 64.1705C374.201 65.0341 374.716 65.7083 375.398 66.1932C376.087 66.678 376.936 66.9205 377.943 66.9205ZM397.932 70.3523C396.212 70.3523 394.731 69.9848 393.489 69.25C392.254 68.5076 391.299 67.4659 390.625 66.125C389.958 64.7765 389.625 63.197 389.625 61.3864C389.625 59.5985 389.958 58.0227 390.625 56.6591C391.299 55.2955 392.239 54.2311 393.443 53.4659C394.655 52.7008 396.072 52.3182 397.693 52.3182C398.678 52.3182 399.633 52.4811 400.557 52.8068C401.481 53.1326 402.311 53.6439 403.045 54.3409C403.78 55.0379 404.36 55.9432 404.784 57.0568C405.208 58.1629 405.42 59.5076 405.42 61.0909V62.2955H391.545V59.75H402.091C402.091 58.8561 401.909 58.0644 401.545 57.375C401.182 56.678 400.67 56.1288 400.011 55.7273C399.36 55.3258 398.595 55.125 397.716 55.125C396.761 55.125 395.928 55.3598 395.216 55.8295C394.511 56.2917 393.966 56.8977 393.58 57.6477C393.201 58.3902 393.011 59.197 393.011 60.0682V62.0568C393.011 63.2235 393.216 64.2159 393.625 65.0341C394.042 65.8523 394.621 66.4773 395.364 66.9091C396.106 67.3333 396.973 67.5455 397.966 67.5455C398.61 67.5455 399.197 67.4545 399.727 67.2727C400.258 67.0833 400.716 66.803 401.102 66.4318C401.489 66.0606 401.784 65.6023 401.989 65.0568L405.205 65.6364C404.947 66.5833 404.485 67.4129 403.818 68.125C403.159 68.8295 402.33 69.3788 401.33 69.7727C400.337 70.1591 399.205 70.3523 397.932 70.3523ZM418.648 58.3636C418.648 55.5152 419.023 52.8939 419.773 50.5C420.523 48.1061 421.617 45.8977 423.057 43.875H426.17C425.61 44.625 425.087 45.5455 424.602 46.6364C424.117 47.7273 423.693 48.9242 423.33 50.2273C422.966 51.5227 422.682 52.8674 422.477 54.2614C422.273 55.6477 422.17 57.0152 422.17 58.3636C422.17 60.1667 422.348 61.9924 422.705 63.8409C423.061 65.6894 423.542 67.4053 424.148 68.9886C424.754 70.572 425.428 71.8636 426.17 72.8636H423.057C421.617 70.8409 420.523 68.6326 419.773 66.2386C419.023 63.8447 418.648 61.2197 418.648 58.3636ZM430.026 46.7273H434.287L441.696 64.8182H441.969L449.378 46.7273H453.639V70H450.298V53.1591H450.082L443.219 69.9659H440.446L433.582 53.1477H433.366V70H430.026V46.7273ZM463.551 70.3864C462.445 70.3864 461.445 70.1818 460.551 69.7727C459.657 69.3561 458.949 68.7538 458.426 67.9659C457.911 67.178 457.653 66.2121 457.653 65.0682C457.653 64.0833 457.843 63.2727 458.222 62.6364C458.6 62 459.112 61.4962 459.756 61.125C460.4 60.7538 461.119 60.4735 461.915 60.2841C462.71 60.0947 463.521 59.9508 464.347 59.8523C465.392 59.7311 466.241 59.6326 466.892 59.5568C467.544 59.4735 468.017 59.3409 468.312 59.1591C468.608 58.9773 468.756 58.6818 468.756 58.2727V58.1932C468.756 57.2008 468.475 56.4318 467.915 55.8864C467.362 55.3409 466.536 55.0682 465.438 55.0682C464.294 55.0682 463.392 55.322 462.733 55.8295C462.081 56.3295 461.631 56.8864 461.381 57.5L458.188 56.7727C458.566 55.7121 459.119 54.8561 459.847 54.2045C460.581 53.5455 461.426 53.0682 462.381 52.7727C463.335 52.4697 464.339 52.3182 465.392 52.3182C466.089 52.3182 466.828 52.4015 467.608 52.5682C468.396 52.7273 469.131 53.0227 469.812 53.4545C470.502 53.8864 471.066 54.5038 471.506 55.3068C471.945 56.1023 472.165 57.1364 472.165 58.4091V70H468.847V67.6136H468.71C468.491 68.053 468.161 68.4848 467.722 68.9091C467.282 69.3333 466.718 69.6856 466.028 69.9659C465.339 70.2462 464.513 70.3864 463.551 70.3864ZM464.29 67.6591C465.229 67.6591 466.032 67.4735 466.699 67.1023C467.373 66.7311 467.884 66.2462 468.233 65.6477C468.589 65.0417 468.767 64.3939 468.767 63.7045V61.4545C468.646 61.5758 468.411 61.6894 468.062 61.7955C467.722 61.8939 467.331 61.9811 466.892 62.0568C466.453 62.125 466.025 62.1894 465.608 62.25C465.191 62.303 464.843 62.3485 464.562 62.3864C463.903 62.4697 463.301 62.6098 462.756 62.8068C462.218 63.0038 461.786 63.2879 461.46 63.6591C461.142 64.0227 460.983 64.5076 460.983 65.1136C460.983 65.9545 461.294 66.5909 461.915 67.0227C462.536 67.447 463.328 67.6591 464.29 67.6591ZM476.69 70V52.5455H480.088V70H476.69ZM478.406 49.8523C477.815 49.8523 477.308 49.6553 476.884 49.2614C476.467 48.8598 476.259 48.3826 476.259 47.8295C476.259 47.2689 476.467 46.7917 476.884 46.3977C477.308 45.9962 477.815 45.7955 478.406 45.7955C478.997 45.7955 479.501 45.9962 479.918 46.3977C480.342 46.7917 480.554 47.2689 480.554 47.8295C480.554 48.3826 480.342 48.8598 479.918 49.2614C479.501 49.6553 478.997 49.8523 478.406 49.8523ZM488.057 59.6364V70H484.659V52.5455H487.92V55.3864H488.136C488.538 54.4621 489.167 53.7197 490.023 53.1591C490.886 52.5985 491.973 52.3182 493.284 52.3182C494.473 52.3182 495.515 52.5682 496.409 53.0682C497.303 53.5606 497.996 54.2955 498.489 55.2727C498.981 56.25 499.227 57.4583 499.227 58.8977V70H495.83V59.3068C495.83 58.0417 495.5 57.053 494.841 56.3409C494.182 55.6212 493.277 55.2614 492.125 55.2614C491.337 55.2614 490.636 55.4318 490.023 55.7727C489.417 56.1136 488.936 56.6136 488.58 57.2727C488.231 57.9242 488.057 58.7121 488.057 59.6364ZM507.182 59.6364V70H503.784V52.5455H507.045V55.3864H507.261C507.663 54.4621 508.292 53.7197 509.148 53.1591C510.011 52.5985 511.098 52.3182 512.409 52.3182C513.598 52.3182 514.64 52.5682 515.534 53.0682C516.428 53.5606 517.121 54.2955 517.614 55.2727C518.106 56.25 518.352 57.4583 518.352 58.8977V70H514.955V59.3068C514.955 58.0417 514.625 57.053 513.966 56.3409C513.307 55.6212 512.402 55.2614 511.25 55.2614C510.462 55.2614 509.761 55.4318 509.148 55.7727C508.542 56.1136 508.061 56.6136 507.705 57.2727C507.356 57.9242 507.182 58.7121 507.182 59.6364ZM530.432 70.3523C528.712 70.3523 527.231 69.9848 525.989 69.25C524.754 68.5076 523.799 67.4659 523.125 66.125C522.458 64.7765 522.125 63.197 522.125 61.3864C522.125 59.5985 522.458 58.0227 523.125 56.6591C523.799 55.2955 524.739 54.2311 525.943 53.4659C527.155 52.7008 528.572 52.3182 530.193 52.3182C531.178 52.3182 532.133 52.4811 533.057 52.8068C533.981 53.1326 534.811 53.6439 535.545 54.3409C536.28 55.0379 536.86 55.9432 537.284 57.0568C537.708 58.1629 537.92 59.5076 537.92 61.0909V62.2955H524.045V59.75H534.591C534.591 58.8561 534.409 58.0644 534.045 57.375C533.682 56.678 533.17 56.1288 532.511 55.7273C531.86 55.3258 531.095 55.125 530.216 55.125C529.261 55.125 528.428 55.3598 527.716 55.8295C527.011 56.2917 526.466 56.8977 526.08 57.6477C525.701 58.3902 525.511 59.197 525.511 60.0682V62.0568C525.511 63.2235 525.716 64.2159 526.125 65.0341C526.542 65.8523 527.121 66.4773 527.864 66.9091C528.606 67.3333 529.473 67.5455 530.466 67.5455C531.11 67.5455 531.697 67.4545 532.227 67.2727C532.758 67.0833 533.216 66.803 533.602 66.4318C533.989 66.0606 534.284 65.6023 534.489 65.0568L537.705 65.6364C537.447 66.5833 536.985 67.4129 536.318 68.125C535.659 68.8295 534.83 69.3788 533.83 69.7727C532.837 70.1591 531.705 70.3523 530.432 70.3523ZM549.838 52.5455V55.2727H540.304V52.5455H549.838ZM542.861 48.3636H546.259V64.875C546.259 65.5341 546.357 66.0303 546.554 66.3636C546.751 66.6894 547.005 66.9129 547.315 67.0341C547.634 67.1477 547.978 67.2045 548.349 67.2045C548.622 67.2045 548.861 67.1856 549.065 67.1477C549.27 67.1098 549.429 67.0795 549.543 67.0568L550.156 69.8636C549.959 69.9394 549.679 70.0152 549.315 70.0909C548.952 70.1742 548.497 70.2197 547.952 70.2273C547.058 70.2424 546.224 70.0833 545.452 69.75C544.679 69.4167 544.054 68.9015 543.577 68.2045C543.099 67.5076 542.861 66.6326 542.861 65.5795V48.3636ZM560.131 60.3409C560.131 63.197 559.756 65.822 559.006 68.2159C558.256 70.6098 557.161 72.8182 555.722 74.8409H552.608C553.169 74.0909 553.691 73.1705 554.176 72.0795C554.661 70.9886 555.085 69.7955 555.449 68.5C555.813 67.197 556.097 65.8485 556.301 64.4545C556.506 63.0606 556.608 61.6894 556.608 60.3409C556.608 58.5455 556.43 56.7235 556.074 54.875C555.718 53.0265 555.237 51.3106 554.631 49.7273C554.025 48.1439 553.35 46.8523 552.608 45.8523H555.722C557.161 47.875 558.256 50.0833 559.006 52.4773C559.756 54.8712 560.131 57.4924 560.131 60.3409ZM93.0085 104.727C92.0919 104.727 91.2547 104.504 90.4972 104.057C89.7396 103.602 89.1335 102.996 88.679 102.239C88.232 101.481 88.0085 100.644 88.0085 99.7273C88.0085 98.803 88.232 97.9659 88.679 97.2159C89.1335 96.4583 89.7396 95.8561 90.4972 95.4091C91.2547 94.9545 92.0919 94.7273 93.0085 94.7273C93.9328 94.7273 94.7699 94.9545 95.5199 95.4091C96.2775 95.8561 96.8797 96.4583 97.3267 97.2159C97.7813 97.9659 98.0085 98.803 98.0085 99.7273C98.0085 100.644 97.7813 101.481 97.3267 102.239C96.8797 102.996 96.2775 103.602 95.5199 104.057C94.7699 104.504 93.9328 104.727 93.0085 104.727ZM123.068 85.7273V109H119.557V85.7273H123.068ZM140.989 95.8068L137.909 96.3523C137.78 95.9583 137.576 95.5833 137.295 95.2273C137.023 94.8712 136.652 94.5795 136.182 94.3523C135.712 94.125 135.125 94.0114 134.42 94.0114C133.458 94.0114 132.655 94.2273 132.011 94.6591C131.367 95.0833 131.045 95.6326 131.045 96.3068C131.045 96.8902 131.261 97.3598 131.693 97.7159C132.125 98.072 132.822 98.3636 133.784 98.5909L136.557 99.2273C138.163 99.5985 139.36 100.17 140.148 100.943C140.936 101.716 141.33 102.72 141.33 103.955C141.33 105 141.027 105.932 140.42 106.75C139.822 107.561 138.985 108.197 137.909 108.659C136.841 109.121 135.602 109.352 134.193 109.352C132.239 109.352 130.644 108.936 129.409 108.102C128.174 107.261 127.417 106.068 127.136 104.523L130.42 104.023C130.625 104.879 131.045 105.527 131.682 105.966C132.318 106.398 133.148 106.614 134.17 106.614C135.284 106.614 136.174 106.383 136.841 105.92C137.508 105.451 137.841 104.879 137.841 104.205C137.841 103.659 137.636 103.201 137.227 102.83C136.826 102.458 136.208 102.178 135.375 101.989L132.42 101.341C130.792 100.97 129.587 100.379 128.807 99.5682C128.034 98.7576 127.648 97.7311 127.648 96.4886C127.648 95.4583 127.936 94.5568 128.511 93.7841C129.087 93.0114 129.883 92.4091 130.898 91.9773C131.913 91.5379 133.076 91.3182 134.386 91.3182C136.273 91.3182 137.758 91.7273 138.841 92.5455C139.924 93.3561 140.64 94.4432 140.989 95.8068ZM152.418 109.352C150.781 109.352 149.353 108.977 148.134 108.227C146.914 107.477 145.967 106.428 145.293 105.08C144.618 103.731 144.281 102.155 144.281 100.352C144.281 98.5417 144.618 96.9583 145.293 95.6023C145.967 94.2462 146.914 93.1932 148.134 92.4432C149.353 91.6932 150.781 91.3182 152.418 91.3182C154.054 91.3182 155.482 91.6932 156.702 92.4432C157.921 93.1932 158.868 94.2462 159.543 95.6023C160.217 96.9583 160.554 98.5417 160.554 100.352C160.554 102.155 160.217 103.731 159.543 105.08C158.868 106.428 157.921 107.477 156.702 108.227C155.482 108.977 154.054 109.352 152.418 109.352ZM152.429 106.5C153.49 106.5 154.368 106.22 155.065 105.659C155.762 105.098 156.277 104.352 156.611 103.42C156.952 102.489 157.122 101.462 157.122 100.341C157.122 99.2273 156.952 98.2045 156.611 97.2727C156.277 96.3333 155.762 95.5795 155.065 95.0114C154.368 94.4432 153.49 94.1591 152.429 94.1591C151.361 94.1591 150.474 94.4432 149.77 95.0114C149.073 95.5795 148.554 96.3333 148.213 97.2727C147.88 98.2045 147.713 99.2273 147.713 100.341C147.713 101.462 147.88 102.489 148.213 103.42C148.554 104.352 149.073 105.098 149.77 105.659C150.474 106.22 151.361 106.5 152.429 106.5ZM167.744 85.7273V109H164.347V85.7273H167.744ZM177.395 109.386C176.289 109.386 175.289 109.182 174.395 108.773C173.501 108.356 172.793 107.754 172.27 106.966C171.755 106.178 171.497 105.212 171.497 104.068C171.497 103.083 171.687 102.273 172.065 101.636C172.444 101 172.955 100.496 173.599 100.125C174.243 99.7538 174.963 99.4735 175.759 99.2841C176.554 99.0947 177.365 98.9508 178.19 98.8523C179.236 98.7311 180.084 98.6326 180.736 98.5568C181.387 98.4735 181.861 98.3409 182.156 98.1591C182.452 97.9773 182.599 97.6818 182.599 97.2727V97.1932C182.599 96.2008 182.319 95.4318 181.759 94.8864C181.205 94.3409 180.38 94.0682 179.281 94.0682C178.137 94.0682 177.236 94.322 176.577 94.8295C175.925 95.3295 175.474 95.8864 175.224 96.5L172.031 95.7727C172.41 94.7121 172.963 93.8561 173.69 93.2045C174.425 92.5455 175.27 92.0682 176.224 91.7727C177.179 91.4697 178.183 91.3182 179.236 91.3182C179.933 91.3182 180.671 91.4015 181.452 91.5682C182.24 91.7273 182.974 92.0227 183.656 92.4545C184.346 92.8864 184.91 93.5038 185.349 94.3068C185.789 95.1023 186.009 96.1364 186.009 97.4091V109H182.69V106.614H182.554C182.334 107.053 182.005 107.485 181.565 107.909C181.126 108.333 180.562 108.686 179.872 108.966C179.183 109.246 178.357 109.386 177.395 109.386ZM178.134 106.659C179.073 106.659 179.876 106.473 180.543 106.102C181.217 105.731 181.728 105.246 182.077 104.648C182.433 104.042 182.611 103.394 182.611 102.705V100.455C182.49 100.576 182.255 100.689 181.906 100.795C181.565 100.894 181.175 100.981 180.736 101.057C180.296 101.125 179.868 101.189 179.452 101.25C179.035 101.303 178.687 101.348 178.406 101.386C177.747 101.47 177.145 101.61 176.599 101.807C176.062 102.004 175.63 102.288 175.304 102.659C174.986 103.023 174.827 103.508 174.827 104.114C174.827 104.955 175.137 105.591 175.759 106.023C176.38 106.447 177.171 106.659 178.134 106.659ZM198.682 91.5455V94.2727H189.148V91.5455H198.682ZM191.705 87.3636H195.102V103.875C195.102 104.534 195.201 105.03 195.398 105.364C195.595 105.689 195.848 105.913 196.159 106.034C196.477 106.148 196.822 106.205 197.193 106.205C197.466 106.205 197.705 106.186 197.909 106.148C198.114 106.11 198.273 106.08 198.386 106.057L199 108.864C198.803 108.939 198.523 109.015 198.159 109.091C197.795 109.174 197.341 109.22 196.795 109.227C195.902 109.242 195.068 109.083 194.295 108.75C193.523 108.417 192.898 107.902 192.42 107.205C191.943 106.508 191.705 105.633 191.705 104.58V87.3636ZM209.776 109.352C208.056 109.352 206.575 108.985 205.332 108.25C204.098 107.508 203.143 106.466 202.469 105.125C201.802 103.777 201.469 102.197 201.469 100.386C201.469 98.5985 201.802 97.0227 202.469 95.6591C203.143 94.2955 204.082 93.2311 205.287 92.4659C206.499 91.7008 207.916 91.3182 209.537 91.3182C210.522 91.3182 211.476 91.4811 212.401 91.8068C213.325 92.1326 214.154 92.6439 214.889 93.3409C215.624 94.0379 216.204 94.9432 216.628 96.0568C217.052 97.1629 217.264 98.5076 217.264 100.091V101.295H203.389V98.75H213.935C213.935 97.8561 213.753 97.0644 213.389 96.375C213.026 95.678 212.514 95.1288 211.855 94.7273C211.204 94.3258 210.438 94.125 209.56 94.125C208.605 94.125 207.772 94.3598 207.06 94.8295C206.355 95.2917 205.81 95.8977 205.423 96.6477C205.045 97.3902 204.855 98.197 204.855 99.0682V101.057C204.855 102.223 205.06 103.216 205.469 104.034C205.885 104.852 206.465 105.477 207.207 105.909C207.95 106.333 208.817 106.545 209.81 106.545C210.454 106.545 211.041 106.455 211.571 106.273C212.101 106.083 212.56 105.803 212.946 105.432C213.332 105.061 213.628 104.602 213.832 104.057L217.048 104.636C216.791 105.583 216.329 106.413 215.662 107.125C215.003 107.83 214.173 108.379 213.173 108.773C212.181 109.159 211.048 109.352 209.776 109.352ZM227.568 109.341C226.159 109.341 224.902 108.981 223.795 108.261C222.697 107.534 221.833 106.5 221.205 105.159C220.583 103.811 220.273 102.193 220.273 100.307C220.273 98.4205 220.587 96.8068 221.216 95.4659C221.852 94.125 222.723 93.0985 223.83 92.3864C224.936 91.6742 226.189 91.3182 227.591 91.3182C228.674 91.3182 229.545 91.5 230.205 91.8636C230.871 92.2197 231.386 92.6364 231.75 93.1136C232.121 93.5909 232.409 94.0114 232.614 94.375H232.818V85.7273H236.216V109H232.898V106.284H232.614C232.409 106.655 232.114 107.08 231.727 107.557C231.348 108.034 230.826 108.451 230.159 108.807C229.492 109.163 228.629 109.341 227.568 109.341ZM228.318 106.443C229.295 106.443 230.121 106.186 230.795 105.67C231.477 105.148 231.992 104.424 232.341 103.5C232.697 102.576 232.875 101.5 232.875 100.273C232.875 99.0606 232.701 98 232.352 97.0909C232.004 96.1818 231.492 95.4735 230.818 94.9659C230.144 94.4583 229.311 94.2045 228.318 94.2045C227.295 94.2045 226.443 94.4697 225.761 95C225.08 95.5303 224.564 96.2538 224.216 97.1705C223.875 98.0871 223.705 99.1212 223.705 100.273C223.705 101.439 223.879 102.489 224.227 103.42C224.576 104.352 225.091 105.091 225.773 105.636C226.462 106.174 227.311 106.443 228.318 106.443ZM249.807 85.7273H254.068L261.477 103.818H261.75L269.159 85.7273H273.42V109H270.08V92.1591H269.864L263 108.966H260.227L253.364 92.1477H253.148V109H249.807V85.7273ZM283.332 109.386C282.226 109.386 281.226 109.182 280.332 108.773C279.438 108.356 278.73 107.754 278.207 106.966C277.692 106.178 277.435 105.212 277.435 104.068C277.435 103.083 277.624 102.273 278.003 101.636C278.382 101 278.893 100.496 279.537 100.125C280.181 99.7538 280.901 99.4735 281.696 99.2841C282.491 99.0947 283.302 98.9508 284.128 98.8523C285.173 98.7311 286.022 98.6326 286.673 98.5568C287.325 98.4735 287.798 98.3409 288.094 98.1591C288.389 97.9773 288.537 97.6818 288.537 97.2727V97.1932C288.537 96.2008 288.257 95.4318 287.696 94.8864C287.143 94.3409 286.317 94.0682 285.219 94.0682C284.075 94.0682 283.173 94.322 282.514 94.8295C281.863 95.3295 281.412 95.8864 281.162 96.5L277.969 95.7727C278.348 94.7121 278.901 93.8561 279.628 93.2045C280.363 92.5455 281.207 92.0682 282.162 91.7727C283.116 91.4697 284.12 91.3182 285.173 91.3182C285.87 91.3182 286.609 91.4015 287.389 91.5682C288.177 91.7273 288.912 92.0227 289.594 92.4545C290.283 92.8864 290.848 93.5038 291.287 94.3068C291.726 95.1023 291.946 96.1364 291.946 97.4091V109H288.628V106.614H288.491C288.272 107.053 287.942 107.485 287.503 107.909C287.063 108.333 286.499 108.686 285.81 108.966C285.12 109.246 284.295 109.386 283.332 109.386ZM284.071 106.659C285.01 106.659 285.813 106.473 286.48 106.102C287.154 105.731 287.666 105.246 288.014 104.648C288.37 104.042 288.548 103.394 288.548 102.705V100.455C288.427 100.576 288.192 100.689 287.844 100.795C287.503 100.894 287.113 100.981 286.673 101.057C286.234 101.125 285.806 101.189 285.389 101.25C284.973 101.303 284.624 101.348 284.344 101.386C283.685 101.47 283.082 101.61 282.537 101.807C281.999 102.004 281.567 102.288 281.241 102.659C280.923 103.023 280.764 103.508 280.764 104.114C280.764 104.955 281.075 105.591 281.696 106.023C282.317 106.447 283.109 106.659 284.071 106.659ZM296.472 109V91.5455H299.756V94.3182H299.938C300.256 93.3788 300.816 92.6402 301.619 92.1023C302.43 91.5568 303.347 91.2841 304.369 91.2841C304.581 91.2841 304.831 91.2917 305.119 91.3068C305.415 91.322 305.646 91.3409 305.812 91.3636V94.6136C305.676 94.5758 305.434 94.5341 305.085 94.4886C304.737 94.4356 304.388 94.4091 304.04 94.4091C303.237 94.4091 302.521 94.5795 301.892 94.9205C301.271 95.2538 300.778 95.7197 300.415 96.3182C300.051 96.9091 299.869 97.5833 299.869 98.3409V109H296.472ZM315.446 115.909C314.06 115.909 312.866 115.727 311.866 115.364C310.874 115 310.063 114.519 309.435 113.92C308.806 113.322 308.336 112.667 308.026 111.955L310.946 110.75C311.151 111.083 311.423 111.436 311.764 111.807C312.113 112.186 312.582 112.508 313.173 112.773C313.772 113.038 314.541 113.17 315.48 113.17C316.768 113.17 317.832 112.856 318.673 112.227C319.514 111.606 319.935 110.614 319.935 109.25V105.818H319.719C319.514 106.189 319.219 106.602 318.832 107.057C318.454 107.511 317.931 107.905 317.264 108.239C316.598 108.572 315.73 108.739 314.662 108.739C313.283 108.739 312.041 108.417 310.935 107.773C309.836 107.121 308.965 106.163 308.321 104.898C307.685 103.625 307.366 102.061 307.366 100.205C307.366 98.3485 307.681 96.7576 308.31 95.4318C308.946 94.1061 309.817 93.0909 310.923 92.3864C312.029 91.6742 313.283 91.3182 314.685 91.3182C315.768 91.3182 316.643 91.5 317.31 91.8636C317.976 92.2197 318.495 92.6364 318.866 93.1136C319.245 93.5909 319.537 94.0114 319.741 94.375H319.991V91.5455H323.321V109.386C323.321 110.886 322.973 112.117 322.276 113.08C321.579 114.042 320.635 114.754 319.446 115.216C318.264 115.678 316.931 115.909 315.446 115.909ZM315.412 105.92C316.389 105.92 317.215 105.693 317.889 105.239C318.571 104.777 319.086 104.117 319.435 103.261C319.791 102.398 319.969 101.364 319.969 100.159C319.969 98.9848 319.795 97.9508 319.446 97.0568C319.098 96.1629 318.586 95.4659 317.912 94.9659C317.238 94.4583 316.404 94.2045 315.412 94.2045C314.389 94.2045 313.537 94.4697 312.855 95C312.173 95.5227 311.658 96.2348 311.31 97.1364C310.969 98.0379 310.798 99.0455 310.798 100.159C310.798 101.303 310.973 102.307 311.321 103.17C311.67 104.034 312.185 104.708 312.866 105.193C313.556 105.678 314.404 105.92 315.412 105.92ZM327.878 109V91.5455H331.276V109H327.878ZM329.594 88.8523C329.003 88.8523 328.495 88.6553 328.071 88.2614C327.654 87.8598 327.446 87.3826 327.446 86.8295C327.446 86.2689 327.654 85.7917 328.071 85.3977C328.495 84.9962 329.003 84.7955 329.594 84.7955C330.185 84.7955 330.688 84.9962 331.105 85.3977C331.529 85.7917 331.741 86.2689 331.741 86.8295C331.741 87.3826 331.529 87.8598 331.105 88.2614C330.688 88.6553 330.185 88.8523 329.594 88.8523ZM339.244 98.6364V109H335.847V91.5455H339.108V94.3864H339.324C339.725 93.4621 340.354 92.7197 341.21 92.1591C342.074 91.5985 343.161 91.3182 344.472 91.3182C345.661 91.3182 346.703 91.5682 347.597 92.0682C348.491 92.5606 349.184 93.2955 349.676 94.2727C350.169 95.25 350.415 96.4583 350.415 97.8977V109H347.017V98.3068C347.017 97.0417 346.688 96.053 346.028 95.3409C345.369 94.6212 344.464 94.2614 343.312 94.2614C342.525 94.2614 341.824 94.4318 341.21 94.7727C340.604 95.1136 340.123 95.6136 339.767 96.2727C339.419 96.9242 339.244 97.7121 339.244 98.6364ZM362.565 88.75V85.7273H380.577V88.75H373.315V109H369.815V88.75H362.565ZM382.472 109V91.5455H385.756V94.3182H385.938C386.256 93.3788 386.816 92.6402 387.619 92.1023C388.43 91.5568 389.347 91.2841 390.369 91.2841C390.581 91.2841 390.831 91.2917 391.119 91.3068C391.415 91.322 391.646 91.3409 391.812 91.3636V94.6136C391.676 94.5758 391.434 94.5341 391.085 94.4886C390.737 94.4356 390.388 94.4091 390.04 94.4091C389.237 94.4091 388.521 94.5795 387.892 94.9205C387.271 95.2538 386.778 95.7197 386.415 96.3182C386.051 96.9091 385.869 97.5833 385.869 98.3409V109H382.472ZM399.676 109.386C398.57 109.386 397.57 109.182 396.676 108.773C395.782 108.356 395.074 107.754 394.551 106.966C394.036 106.178 393.778 105.212 393.778 104.068C393.778 103.083 393.968 102.273 394.347 101.636C394.725 101 395.237 100.496 395.881 100.125C396.525 99.7538 397.244 99.4735 398.04 99.2841C398.835 99.0947 399.646 98.9508 400.472 98.8523C401.517 98.7311 402.366 98.6326 403.017 98.5568C403.669 98.4735 404.142 98.3409 404.438 98.1591C404.733 97.9773 404.881 97.6818 404.881 97.2727V97.1932C404.881 96.2008 404.6 95.4318 404.04 94.8864C403.487 94.3409 402.661 94.0682 401.562 94.0682C400.419 94.0682 399.517 94.322 398.858 94.8295C398.206 95.3295 397.756 95.8864 397.506 96.5L394.312 95.7727C394.691 94.7121 395.244 93.8561 395.972 93.2045C396.706 92.5455 397.551 92.0682 398.506 91.7727C399.46 91.4697 400.464 91.3182 401.517 91.3182C402.214 91.3182 402.953 91.4015 403.733 91.5682C404.521 91.7273 405.256 92.0227 405.938 92.4545C406.627 92.8864 407.191 93.5038 407.631 94.3068C408.07 95.1023 408.29 96.1364 408.29 97.4091V109H404.972V106.614H404.835C404.616 107.053 404.286 107.485 403.847 107.909C403.407 108.333 402.843 108.686 402.153 108.966C401.464 109.246 400.638 109.386 399.676 109.386ZM400.415 106.659C401.354 106.659 402.157 106.473 402.824 106.102C403.498 105.731 404.009 105.246 404.358 104.648C404.714 104.042 404.892 103.394 404.892 102.705V100.455C404.771 100.576 404.536 100.689 404.188 100.795C403.847 100.894 403.456 100.981 403.017 101.057C402.578 101.125 402.15 101.189 401.733 101.25C401.316 101.303 400.968 101.348 400.688 101.386C400.028 101.47 399.426 101.61 398.881 101.807C398.343 102.004 397.911 102.288 397.585 102.659C397.267 103.023 397.108 103.508 397.108 104.114C397.108 104.955 397.419 105.591 398.04 106.023C398.661 106.447 399.453 106.659 400.415 106.659ZM419.349 109.341C417.94 109.341 416.683 108.981 415.577 108.261C414.478 107.534 413.615 106.5 412.986 105.159C412.365 103.811 412.054 102.193 412.054 100.307C412.054 98.4205 412.368 96.8068 412.997 95.4659C413.634 94.125 414.505 93.0985 415.611 92.3864C416.717 91.6742 417.971 91.3182 419.372 91.3182C420.455 91.3182 421.327 91.5 421.986 91.8636C422.652 92.2197 423.168 92.6364 423.531 93.1136C423.902 93.5909 424.19 94.0114 424.395 94.375H424.599V85.7273H427.997V109H424.679V106.284H424.395C424.19 106.655 423.895 107.08 423.509 107.557C423.13 108.034 422.607 108.451 421.94 108.807C421.274 109.163 420.41 109.341 419.349 109.341ZM420.099 106.443C421.077 106.443 421.902 106.186 422.577 105.67C423.259 105.148 423.774 104.424 424.122 103.5C424.478 102.576 424.656 101.5 424.656 100.273C424.656 99.0606 424.482 98 424.134 97.0909C423.785 96.1818 423.274 95.4735 422.599 94.9659C421.925 94.4583 421.092 94.2045 420.099 94.2045C419.077 94.2045 418.224 94.4697 417.543 95C416.861 95.5303 416.346 96.2538 415.997 97.1705C415.656 98.0871 415.486 99.1212 415.486 100.273C415.486 101.439 415.66 102.489 416.009 103.42C416.357 104.352 416.872 105.091 417.554 105.636C418.243 106.174 419.092 106.443 420.099 106.443ZM440.369 109.352C438.65 109.352 437.169 108.985 435.926 108.25C434.691 107.508 433.737 106.466 433.062 105.125C432.396 103.777 432.062 102.197 432.062 100.386C432.062 98.5985 432.396 97.0227 433.062 95.6591C433.737 94.2955 434.676 93.2311 435.881 92.4659C437.093 91.7008 438.509 91.3182 440.131 91.3182C441.116 91.3182 442.07 91.4811 442.994 91.8068C443.919 92.1326 444.748 92.6439 445.483 93.3409C446.218 94.0379 446.797 94.9432 447.222 96.0568C447.646 97.1629 447.858 98.5076 447.858 100.091V101.295H433.983V98.75H444.528C444.528 97.8561 444.347 97.0644 443.983 96.375C443.619 95.678 443.108 95.1288 442.449 94.7273C441.797 94.3258 441.032 94.125 440.153 94.125C439.199 94.125 438.366 94.3598 437.653 94.8295C436.949 95.2917 436.403 95.8977 436.017 96.6477C435.638 97.3902 435.449 98.197 435.449 99.0682V101.057C435.449 102.223 435.653 103.216 436.062 104.034C436.479 104.852 437.059 105.477 437.801 105.909C438.544 106.333 439.411 106.545 440.403 106.545C441.047 106.545 441.634 106.455 442.165 106.273C442.695 106.083 443.153 105.803 443.54 105.432C443.926 105.061 444.222 104.602 444.426 104.057L447.642 104.636C447.384 105.583 446.922 106.413 446.256 107.125C445.597 107.83 444.767 108.379 443.767 108.773C442.775 109.159 441.642 109.352 440.369 109.352ZM93.0085 143.727C92.0919 143.727 91.2547 143.504 90.4972 143.057C89.7396 142.602 89.1335 141.996 88.679 141.239C88.232 140.481 88.0085 139.644 88.0085 138.727C88.0085 137.803 88.232 136.966 88.679 136.216C89.1335 135.458 89.7396 134.856 90.4972 134.409C91.2547 133.955 92.0919 133.727 93.0085 133.727C93.9328 133.727 94.7699 133.955 95.5199 134.409C96.2775 134.856 96.8797 135.458 97.3267 136.216C97.7813 136.966 98.0085 137.803 98.0085 138.727C98.0085 139.644 97.7813 140.481 97.3267 141.239C96.8797 141.996 96.2775 142.602 95.5199 143.057C94.7699 143.504 93.9328 143.727 93.0085 143.727ZM138.886 132.295H135.341C135.205 131.538 134.951 130.871 134.58 130.295C134.208 129.72 133.754 129.231 133.216 128.83C132.678 128.428 132.076 128.125 131.409 127.92C130.75 127.716 130.049 127.614 129.307 127.614C127.966 127.614 126.765 127.951 125.705 128.625C124.652 129.299 123.818 130.288 123.205 131.591C122.598 132.894 122.295 134.485 122.295 136.364C122.295 138.258 122.598 139.856 123.205 141.159C123.818 142.462 124.655 143.447 125.716 144.114C126.777 144.78 127.97 145.114 129.295 145.114C130.03 145.114 130.727 145.015 131.386 144.818C132.053 144.614 132.655 144.314 133.193 143.92C133.731 143.527 134.186 143.045 134.557 142.477C134.936 141.902 135.197 141.242 135.341 140.5L138.886 140.511C138.697 141.655 138.33 142.708 137.784 143.67C137.246 144.625 136.553 145.451 135.705 146.148C134.864 146.837 133.902 147.371 132.818 147.75C131.735 148.129 130.553 148.318 129.273 148.318C127.258 148.318 125.462 147.841 123.886 146.886C122.311 145.924 121.068 144.549 120.159 142.761C119.258 140.973 118.807 138.841 118.807 136.364C118.807 133.879 119.261 131.746 120.17 129.966C121.08 128.178 122.322 126.807 123.898 125.852C125.473 124.89 127.265 124.409 129.273 124.409C130.508 124.409 131.659 124.587 132.727 124.943C133.803 125.292 134.769 125.807 135.625 126.489C136.481 127.163 137.189 127.989 137.75 128.966C138.311 129.936 138.689 131.045 138.886 132.295ZM142.815 148V130.545H146.099V133.318H146.281C146.599 132.379 147.16 131.64 147.963 131.102C148.774 130.557 149.69 130.284 150.713 130.284C150.925 130.284 151.175 130.292 151.463 130.307C151.759 130.322 151.99 130.341 152.156 130.364V133.614C152.02 133.576 151.777 133.534 151.429 133.489C151.08 133.436 150.732 133.409 150.384 133.409C149.58 133.409 148.865 133.58 148.236 133.92C147.615 134.254 147.122 134.72 146.759 135.318C146.395 135.909 146.213 136.583 146.213 137.341V148H142.815ZM161.824 148.352C160.188 148.352 158.759 147.977 157.54 147.227C156.32 146.477 155.373 145.428 154.699 144.08C154.025 142.731 153.688 141.155 153.688 139.352C153.688 137.542 154.025 135.958 154.699 134.602C155.373 133.246 156.32 132.193 157.54 131.443C158.759 130.693 160.188 130.318 161.824 130.318C163.46 130.318 164.888 130.693 166.108 131.443C167.328 132.193 168.275 133.246 168.949 134.602C169.623 135.958 169.96 137.542 169.96 139.352C169.96 141.155 169.623 142.731 168.949 144.08C168.275 145.428 167.328 146.477 166.108 147.227C164.888 147.977 163.46 148.352 161.824 148.352ZM161.835 145.5C162.896 145.5 163.775 145.22 164.472 144.659C165.169 144.098 165.684 143.352 166.017 142.42C166.358 141.489 166.528 140.462 166.528 139.341C166.528 138.227 166.358 137.205 166.017 136.273C165.684 135.333 165.169 134.58 164.472 134.011C163.775 133.443 162.896 133.159 161.835 133.159C160.767 133.159 159.881 133.443 159.176 134.011C158.479 134.58 157.96 135.333 157.619 136.273C157.286 137.205 157.119 138.227 157.119 139.341C157.119 140.462 157.286 141.489 157.619 142.42C157.96 143.352 158.479 144.098 159.176 144.659C159.881 145.22 160.767 145.5 161.835 145.5ZM186.832 134.807L183.753 135.352C183.624 134.958 183.42 134.583 183.139 134.227C182.866 133.871 182.495 133.58 182.026 133.352C181.556 133.125 180.969 133.011 180.264 133.011C179.302 133.011 178.499 133.227 177.855 133.659C177.211 134.083 176.889 134.633 176.889 135.307C176.889 135.89 177.105 136.36 177.537 136.716C177.969 137.072 178.666 137.364 179.628 137.591L182.401 138.227C184.007 138.598 185.204 139.17 185.991 139.943C186.779 140.716 187.173 141.72 187.173 142.955C187.173 144 186.87 144.932 186.264 145.75C185.666 146.561 184.829 147.197 183.753 147.659C182.685 148.121 181.446 148.352 180.037 148.352C178.082 148.352 176.488 147.936 175.253 147.102C174.018 146.261 173.26 145.068 172.98 143.523L176.264 143.023C176.469 143.879 176.889 144.527 177.526 144.966C178.162 145.398 178.991 145.614 180.014 145.614C181.128 145.614 182.018 145.383 182.685 144.92C183.351 144.451 183.685 143.879 183.685 143.205C183.685 142.659 183.48 142.201 183.071 141.83C182.67 141.458 182.052 141.178 181.219 140.989L178.264 140.341C176.635 139.97 175.431 139.379 174.651 138.568C173.878 137.758 173.491 136.731 173.491 135.489C173.491 134.458 173.779 133.557 174.355 132.784C174.931 132.011 175.726 131.409 176.741 130.977C177.757 130.538 178.92 130.318 180.23 130.318C182.116 130.318 183.601 130.727 184.685 131.545C185.768 132.356 186.484 133.443 186.832 134.807ZM203.989 134.807L200.909 135.352C200.78 134.958 200.576 134.583 200.295 134.227C200.023 133.871 199.652 133.58 199.182 133.352C198.712 133.125 198.125 133.011 197.42 133.011C196.458 133.011 195.655 133.227 195.011 133.659C194.367 134.083 194.045 134.633 194.045 135.307C194.045 135.89 194.261 136.36 194.693 136.716C195.125 137.072 195.822 137.364 196.784 137.591L199.557 138.227C201.163 138.598 202.36 139.17 203.148 139.943C203.936 140.716 204.33 141.72 204.33 142.955C204.33 144 204.027 144.932 203.42 145.75C202.822 146.561 201.985 147.197 200.909 147.659C199.841 148.121 198.602 148.352 197.193 148.352C195.239 148.352 193.644 147.936 192.409 147.102C191.174 146.261 190.417 145.068 190.136 143.523L193.42 143.023C193.625 143.879 194.045 144.527 194.682 144.966C195.318 145.398 196.148 145.614 197.17 145.614C198.284 145.614 199.174 145.383 199.841 144.92C200.508 144.451 200.841 143.879 200.841 143.205C200.841 142.659 200.636 142.201 200.227 141.83C199.826 141.458 199.208 141.178 198.375 140.989L195.42 140.341C193.792 139.97 192.587 139.379 191.807 138.568C191.034 137.758 190.648 136.731 190.648 135.489C190.648 134.458 190.936 133.557 191.511 132.784C192.087 132.011 192.883 131.409 193.898 130.977C194.913 130.538 196.076 130.318 197.386 130.318C199.273 130.318 200.758 130.727 201.841 131.545C202.924 132.356 203.64 133.443 203.989 134.807ZM216.807 124.727H221.068L228.477 142.818H228.75L236.159 124.727H240.42V148H237.08V131.159H236.864L230 147.966H227.227L220.364 131.148H220.148V148H216.807V124.727ZM250.332 148.386C249.226 148.386 248.226 148.182 247.332 147.773C246.438 147.356 245.73 146.754 245.207 145.966C244.692 145.178 244.435 144.212 244.435 143.068C244.435 142.083 244.624 141.273 245.003 140.636C245.382 140 245.893 139.496 246.537 139.125C247.181 138.754 247.901 138.473 248.696 138.284C249.491 138.095 250.302 137.951 251.128 137.852C252.173 137.731 253.022 137.633 253.673 137.557C254.325 137.473 254.798 137.341 255.094 137.159C255.389 136.977 255.537 136.682 255.537 136.273V136.193C255.537 135.201 255.257 134.432 254.696 133.886C254.143 133.341 253.317 133.068 252.219 133.068C251.075 133.068 250.173 133.322 249.514 133.83C248.863 134.33 248.412 134.886 248.162 135.5L244.969 134.773C245.348 133.712 245.901 132.856 246.628 132.205C247.363 131.545 248.207 131.068 249.162 130.773C250.116 130.47 251.12 130.318 252.173 130.318C252.87 130.318 253.609 130.402 254.389 130.568C255.177 130.727 255.912 131.023 256.594 131.455C257.283 131.886 257.848 132.504 258.287 133.307C258.726 134.102 258.946 135.136 258.946 136.409V148H255.628V145.614H255.491C255.272 146.053 254.942 146.485 254.503 146.909C254.063 147.333 253.499 147.686 252.81 147.966C252.12 148.246 251.295 148.386 250.332 148.386ZM251.071 145.659C252.01 145.659 252.813 145.473 253.48 145.102C254.154 144.731 254.666 144.246 255.014 143.648C255.37 143.042 255.548 142.394 255.548 141.705V139.455C255.427 139.576 255.192 139.689 254.844 139.795C254.503 139.894 254.113 139.981 253.673 140.057C253.234 140.125 252.806 140.189 252.389 140.25C251.973 140.303 251.624 140.348 251.344 140.386C250.685 140.47 250.082 140.61 249.537 140.807C248.999 141.004 248.567 141.288 248.241 141.659C247.923 142.023 247.764 142.508 247.764 143.114C247.764 143.955 248.075 144.591 248.696 145.023C249.317 145.447 250.109 145.659 251.071 145.659ZM263.472 148V130.545H266.756V133.318H266.938C267.256 132.379 267.816 131.64 268.619 131.102C269.43 130.557 270.347 130.284 271.369 130.284C271.581 130.284 271.831 130.292 272.119 130.307C272.415 130.322 272.646 130.341 272.812 130.364V133.614C272.676 133.576 272.434 133.534 272.085 133.489C271.737 133.436 271.388 133.409 271.04 133.409C270.237 133.409 269.521 133.58 268.892 133.92C268.271 134.254 267.778 134.72 267.415 135.318C267.051 135.909 266.869 136.583 266.869 137.341V148H263.472ZM282.446 154.909C281.06 154.909 279.866 154.727 278.866 154.364C277.874 154 277.063 153.519 276.435 152.92C275.806 152.322 275.336 151.667 275.026 150.955L277.946 149.75C278.151 150.083 278.423 150.436 278.764 150.807C279.113 151.186 279.582 151.508 280.173 151.773C280.772 152.038 281.541 152.17 282.48 152.17C283.768 152.17 284.832 151.856 285.673 151.227C286.514 150.606 286.935 149.614 286.935 148.25V144.818H286.719C286.514 145.189 286.219 145.602 285.832 146.057C285.454 146.511 284.931 146.905 284.264 147.239C283.598 147.572 282.73 147.739 281.662 147.739C280.283 147.739 279.041 147.417 277.935 146.773C276.836 146.121 275.965 145.163 275.321 143.898C274.685 142.625 274.366 141.061 274.366 139.205C274.366 137.348 274.681 135.758 275.31 134.432C275.946 133.106 276.817 132.091 277.923 131.386C279.029 130.674 280.283 130.318 281.685 130.318C282.768 130.318 283.643 130.5 284.31 130.864C284.976 131.22 285.495 131.636 285.866 132.114C286.245 132.591 286.537 133.011 286.741 133.375H286.991V130.545H290.321V148.386C290.321 149.886 289.973 151.117 289.276 152.08C288.579 153.042 287.635 153.754 286.446 154.216C285.264 154.678 283.931 154.909 282.446 154.909ZM282.412 144.92C283.389 144.92 284.215 144.693 284.889 144.239C285.571 143.777 286.086 143.117 286.435 142.261C286.791 141.398 286.969 140.364 286.969 139.159C286.969 137.985 286.795 136.951 286.446 136.057C286.098 135.163 285.586 134.466 284.912 133.966C284.238 133.458 283.404 133.205 282.412 133.205C281.389 133.205 280.537 133.47 279.855 134C279.173 134.523 278.658 135.235 278.31 136.136C277.969 137.038 277.798 138.045 277.798 139.159C277.798 140.303 277.973 141.307 278.321 142.17C278.67 143.034 279.185 143.708 279.866 144.193C280.556 144.678 281.404 144.92 282.412 144.92ZM294.878 148V130.545H298.276V148H294.878ZM296.594 127.852C296.003 127.852 295.495 127.655 295.071 127.261C294.654 126.86 294.446 126.383 294.446 125.83C294.446 125.269 294.654 124.792 295.071 124.398C295.495 123.996 296.003 123.795 296.594 123.795C297.185 123.795 297.688 123.996 298.105 124.398C298.529 124.792 298.741 125.269 298.741 125.83C298.741 126.383 298.529 126.86 298.105 127.261C297.688 127.655 297.185 127.852 296.594 127.852ZM306.244 137.636V148H302.847V130.545H306.108V133.386H306.324C306.725 132.462 307.354 131.72 308.21 131.159C309.074 130.598 310.161 130.318 311.472 130.318C312.661 130.318 313.703 130.568 314.597 131.068C315.491 131.561 316.184 132.295 316.676 133.273C317.169 134.25 317.415 135.458 317.415 136.898V148H314.017V137.307C314.017 136.042 313.688 135.053 313.028 134.341C312.369 133.621 311.464 133.261 310.312 133.261C309.525 133.261 308.824 133.432 308.21 133.773C307.604 134.114 307.123 134.614 306.767 135.273C306.419 135.924 306.244 136.712 306.244 137.636ZM329.565 127.75V124.727H347.577V127.75H340.315V148H336.815V127.75H329.565ZM349.472 148V130.545H352.756V133.318H352.938C353.256 132.379 353.816 131.64 354.619 131.102C355.43 130.557 356.347 130.284 357.369 130.284C357.581 130.284 357.831 130.292 358.119 130.307C358.415 130.322 358.646 130.341 358.812 130.364V133.614C358.676 133.576 358.434 133.534 358.085 133.489C357.737 133.436 357.388 133.409 357.04 133.409C356.237 133.409 355.521 133.58 354.892 133.92C354.271 134.254 353.778 134.72 353.415 135.318C353.051 135.909 352.869 136.583 352.869 137.341V148H349.472ZM366.676 148.386C365.57 148.386 364.57 148.182 363.676 147.773C362.782 147.356 362.074 146.754 361.551 145.966C361.036 145.178 360.778 144.212 360.778 143.068C360.778 142.083 360.968 141.273 361.347 140.636C361.725 140 362.237 139.496 362.881 139.125C363.525 138.754 364.244 138.473 365.04 138.284C365.835 138.095 366.646 137.951 367.472 137.852C368.517 137.731 369.366 137.633 370.017 137.557C370.669 137.473 371.142 137.341 371.438 137.159C371.733 136.977 371.881 136.682 371.881 136.273V136.193C371.881 135.201 371.6 134.432 371.04 133.886C370.487 133.341 369.661 133.068 368.562 133.068C367.419 133.068 366.517 133.322 365.858 133.83C365.206 134.33 364.756 134.886 364.506 135.5L361.312 134.773C361.691 133.712 362.244 132.856 362.972 132.205C363.706 131.545 364.551 131.068 365.506 130.773C366.46 130.47 367.464 130.318 368.517 130.318C369.214 130.318 369.953 130.402 370.733 130.568C371.521 130.727 372.256 131.023 372.938 131.455C373.627 131.886 374.191 132.504 374.631 133.307C375.07 134.102 375.29 135.136 375.29 136.409V148H371.972V145.614H371.835C371.616 146.053 371.286 146.485 370.847 146.909C370.407 147.333 369.843 147.686 369.153 147.966C368.464 148.246 367.638 148.386 366.676 148.386ZM367.415 145.659C368.354 145.659 369.157 145.473 369.824 145.102C370.498 144.731 371.009 144.246 371.358 143.648C371.714 143.042 371.892 142.394 371.892 141.705V139.455C371.771 139.576 371.536 139.689 371.188 139.795C370.847 139.894 370.456 139.981 370.017 140.057C369.578 140.125 369.15 140.189 368.733 140.25C368.316 140.303 367.968 140.348 367.688 140.386C367.028 140.47 366.426 140.61 365.881 140.807C365.343 141.004 364.911 141.288 364.585 141.659C364.267 142.023 364.108 142.508 364.108 143.114C364.108 143.955 364.419 144.591 365.04 145.023C365.661 145.447 366.453 145.659 367.415 145.659ZM386.349 148.341C384.94 148.341 383.683 147.981 382.577 147.261C381.478 146.534 380.615 145.5 379.986 144.159C379.365 142.811 379.054 141.193 379.054 139.307C379.054 137.42 379.368 135.807 379.997 134.466C380.634 133.125 381.505 132.098 382.611 131.386C383.717 130.674 384.971 130.318 386.372 130.318C387.455 130.318 388.327 130.5 388.986 130.864C389.652 131.22 390.168 131.636 390.531 132.114C390.902 132.591 391.19 133.011 391.395 133.375H391.599V124.727H394.997V148H391.679V145.284H391.395C391.19 145.655 390.895 146.08 390.509 146.557C390.13 147.034 389.607 147.451 388.94 147.807C388.274 148.163 387.41 148.341 386.349 148.341ZM387.099 145.443C388.077 145.443 388.902 145.186 389.577 144.67C390.259 144.148 390.774 143.424 391.122 142.5C391.478 141.576 391.656 140.5 391.656 139.273C391.656 138.061 391.482 137 391.134 136.091C390.785 135.182 390.274 134.473 389.599 133.966C388.925 133.458 388.092 133.205 387.099 133.205C386.077 133.205 385.224 133.47 384.543 134C383.861 134.53 383.346 135.254 382.997 136.17C382.656 137.087 382.486 138.121 382.486 139.273C382.486 140.439 382.66 141.489 383.009 142.42C383.357 143.352 383.872 144.091 384.554 144.636C385.243 145.174 386.092 145.443 387.099 145.443ZM407.369 148.352C405.65 148.352 404.169 147.985 402.926 147.25C401.691 146.508 400.737 145.466 400.062 144.125C399.396 142.777 399.062 141.197 399.062 139.386C399.062 137.598 399.396 136.023 400.062 134.659C400.737 133.295 401.676 132.231 402.881 131.466C404.093 130.701 405.509 130.318 407.131 130.318C408.116 130.318 409.07 130.481 409.994 130.807C410.919 131.133 411.748 131.644 412.483 132.341C413.218 133.038 413.797 133.943 414.222 135.057C414.646 136.163 414.858 137.508 414.858 139.091V140.295H400.983V137.75H411.528C411.528 136.856 411.347 136.064 410.983 135.375C410.619 134.678 410.108 134.129 409.449 133.727C408.797 133.326 408.032 133.125 407.153 133.125C406.199 133.125 405.366 133.36 404.653 133.83C403.949 134.292 403.403 134.898 403.017 135.648C402.638 136.39 402.449 137.197 402.449 138.068V140.057C402.449 141.223 402.653 142.216 403.062 143.034C403.479 143.852 404.059 144.477 404.801 144.909C405.544 145.333 406.411 145.545 407.403 145.545C408.047 145.545 408.634 145.455 409.165 145.273C409.695 145.083 410.153 144.803 410.54 144.432C410.926 144.061 411.222 143.602 411.426 143.057L414.642 143.636C414.384 144.583 413.922 145.413 413.256 146.125C412.597 146.83 411.767 147.379 410.767 147.773C409.775 148.159 408.642 148.352 407.369 148.352Z" fill="#BA1E71"/>
<line x1="93.5" y1="20" x2="93.5" y2="335" stroke="#BA1E71"/>
</svg>
